<?xml version="1.0" encoding="UTF-8"?>
<svg version="1.1" xmlns="http://www.w3.org/2000/svg" width="225" height="225">
<path d="M0 0 C74.25 0 148.5 0 225 0 C225 74.25 225 148.5 225 225 C150.75 225 76.5 225 0 225 C0 150.75 0 76.5 0 0 Z " fill="#1B1C1B" transform="translate(0,0)"/>
<path d="M0 0 C42.24 0 84.48 0 128 0 C129 24 129 24 122.8125 33.1875 C119.26953125 36.85546875 119.26953125 36.85546875 117.55712891 38.47412109 C115.78153278 40.14856162 115.78153278 40.14856162 113.69921875 42.92578125 C113.13847656 43.61027344 112.57773438 44.29476562 112 45 C111.34 45 110.68 45 110 45 C108.94921875 43.59375 108.94921875 43.59375 107.6875 41.5 C105.59702079 38.20307508 103.35829617 35.18434078 100.8203125 32.2265625 C89.88725592 19.47773061 89.88725592 19.47773061 88.41015625 11.2109375 C87.88620026 8.3865652 86.59718034 6.35774241 85 4 C85 3.34 85 2.68 85 2 C82.69 2 80.38 2 78 2 C77.98582031 2.59425781 77.97164063 3.18851562 77.95703125 3.80078125 C77.65728855 9.00982327 76.77395311 12.84164506 74.375 17.5 C71.64386291 22.985751 71.70552176 27.09153991 73 33 C68.00778053 36.59014932 63.01546792 40.04839898 57.6875 43.125 C44.47351106 50.96694671 37.31388467 65.00741259 32.0625 78.9375 C28.85220495 87.19937807 25.52287457 94.90584847 19.6875 101.6875 C17.31187063 104.94299211 16.78785749 106.96929228 17 111 C19.04991809 113.42166489 21.38506366 115.21975656 24 117 C23.65453125 117.71027344 23.3090625 118.42054687 22.953125 119.15234375 C21.8494416 122.44982407 22.06889201 124.17997044 22.75 127.5625 C23.37780754 130.75647087 23.98801194 133.89984979 24.375 137.1328125 C25.37969563 145.31689563 28.15057057 150.75483483 33.671875 156.84375 C35.4846574 159.78685554 35.3007004 162.07024969 35.3125 165.5 C35.48320007 170.6979228 35.48320007 170.6979228 38.625 174.6875 C42.04299065 176.01671859 45.46982722 177.014738 49 178 C48.97679687 179.18078125 48.95359375 180.3615625 48.9296875 181.578125 C48.91092503 183.13541033 48.89272534 184.69270252 48.875 186.25 C48.85824219 187.02730469 48.84148438 187.80460938 48.82421875 188.60546875 C48.6767698 194.13232173 48.6767698 194.13232173 51 199 C53.03317007 200.73425773 53.03317007 200.73425773 55 202 C54 207 53 212 52 217 C51.82339844 217.92425781 51.64679687 218.84851563 51.46484375 219.80078125 C51 222 51 222 50 225 C33.5 225 17 225 0 225 C0 150.75 0 76.5 0 0 Z " fill="#FDFDFD" transform="translate(0,0)"/>
<path d="M0 0 C23.76 0 47.52 0 72 0 C72 74.25 72 148.5 72 225 C52.2 225 32.4 225 12 225 C11.34 220.38 10.68 215.76 10 211 C9.608125 209.494375 9.21625 207.98875 8.8125 206.4375 C7.16738916 199.4095865 7.79441315 191.96373433 10.5 185.3125 C14.02525425 182.05163982 17.37541742 181.70688831 22 181 C22.99 180.67 23.98 180.34 25 180 C25 179.34 25 178.68 25 178 C25.65226562 177.72027344 26.30453125 177.44054687 26.9765625 177.15234375 C27.85054687 176.75144531 28.72453125 176.35054687 29.625 175.9375 C30.48351562 175.55464844 31.34203125 175.17179688 32.2265625 174.77734375 C39.10099398 170.37189822 42.05939784 164.43017883 44.5625 156.875 C45.14882038 155.19238775 45.73606439 153.51009707 46.32421875 151.828125 C46.60571777 151.00892578 46.8872168 150.18972656 47.17724609 149.34570312 C48.67719408 145.06929354 50.37752634 140.87362594 52.0546875 136.6640625 C55.66687935 126.4842491 54.61787503 111.81923608 50 102 C48.88142666 100.25307554 47.73331595 98.52484967 46.5625 96.8125 C42.86899758 91.3380635 41.47850859 86.00785712 39.9453125 79.63671875 C36.74771598 67.33522139 29.26605382 53.69317614 18.640625 46.375 C17.85171875 45.92125 17.0628125 45.4675 16.25 45 C15.39148438 44.50242188 14.53296875 44.00484375 13.6484375 43.4921875 C12.77445313 42.99976563 11.90046875 42.50734375 11 42 C10.12601563 41.50757813 9.25203125 41.01515625 8.3515625 40.5078125 C6.23963114 39.3285953 4.12308705 38.15897989 2 37 C2.15984375 36.47664063 2.3196875 35.95328125 2.484375 35.4140625 C4.96934196 23.77989901 1.89219723 11.35318335 0 0 Z " fill="#FDFDFD" transform="translate(153,0)"/>
<path d="M0 0 C18.48 0 36.96 0 56 0 C55.34 0.99 54.68 1.98 54 3 C54.144375 3.5775 54.28875 4.155 54.4375 4.75 C55.24361191 7.97444762 54.56055335 10.76124729 54 14 C54.66 14 55.32 14 56 14 C56 14.66 56 15.32 56 16 C55.01 16.495 55.01 16.495 54 17 C54.495 18.98 54.495 18.98 55 21 C54.34 21 53.68 21 53 21 C53 22.98 53 24.96 53 27 C53.66 27 54.32 27 55 27 C54.67 28.32 54.34 29.64 54 31 C54.66 31 55.32 31 56 31 C56 31.66 56 32.32 56 33 C55.34 33 54.68 33 54 33 C54 34.98 54 36.96 54 39 C54.99 39.495 54.99 39.495 56 40 C54.35 40 52.7 40 51 40 C51 40.66 51 41.32 51 42 C51.66 42 52.32 42 53 42 C53 42.66 53 43.32 53 44 C53.66 44 54.32 44 55 44 C55 44.66 55 45.32 55 46 C54.34 46 53.68 46 53 46 C53 47.65 53 49.3 53 51 C53.66 51 54.32 51 55 51 C55 51.66 55 52.32 55 53 C53.35 53 51.7 53 50 53 C50.33 53.66 50.66 54.32 51 55 C53.02463255 55.65213292 53.02463255 55.65213292 55 56 C55 56.66 55 57.32 55 58 C54.34 58 53.68 58 53 58 C53 59.98 53 61.96 53 64 C53.99 64.33 54.98 64.66 56 65 C55.34 66.65 54.68 68.3 54 70 C53.34 70 52.68 70 52 70 C52 71.98 52 73.96 52 76 C52.99 76.495 52.99 76.495 54 77 C52.865625 77.12375 51.73125 77.2475 50.5625 77.375 C48.7990625 77.684375 48.7990625 77.684375 47 78 C46.67 78.66 46.34 79.32 46 80 C40.125 76.125 40.125 76.125 39 75 C38.95615553 73.33391013 38.9603287 71.66619446 39 70 C39 69.01 39 68.02 39 67 C38.01 69.31 37.02 71.62 36 74 C36.99 74.99 36.99 74.99 38 76 C38 77.32 38 78.64 38 80 C31.92479812 80.9170116 26.12433942 81 20 81 C19.505 80.01 19.505 80.01 19 79 C18.34 79 17.68 79 17 79 C17 78.34 17 77.68 17 77 C15.35 77 13.7 77 12 77 C12 75.35 12 73.7 12 72 C13.65 72 15.3 72 17 72 C17 71.34 17 70.68 17 70 C15.02 70.495 15.02 70.495 13 71 C13.33 70.01 13.66 69.02 14 68 C14.66 68 15.32 68 16 68 C16 67.34 16 66.68 16 66 C13.525 66.99 13.525 66.99 11 68 C11 68.66 11 69.32 11 70 C10.34 70 9.68 70 9 70 C9 71.98 9 73.96 9 76 C9.66 76.33 10.32 76.66 11 77 C9.35 77 7.7 77 6 77 C6.33 74.69 6.66 72.38 7 70 C6.01 70 5.02 70 4 70 C3.4375 68.0625 3.4375 68.0625 3 66 C3.495 65.505 3.495 65.505 4 65 C4.07179964 63.48071962 4.08392007 61.95832518 4.0625 60.4375 C4.05347656 59.61121094 4.04445313 58.78492188 4.03515625 57.93359375 C4.02355469 57.29550781 4.01195313 56.65742187 4 56 C4.66 56 5.32 56 6 56 C6 55.01 6 54.02 6 53 C4.515 53.495 4.515 53.495 3 54 C3.375 51.5625 3.375 51.5625 4 49 C4.99 48.505 4.99 48.505 6 48 C6 45.03 6 42.06 6 39 C6.66 39 7.32 39 8 39 C7.814375 37.906875 7.62875 36.81375 7.4375 35.6875 C7 32 7 32 8 29 C7.34 29 6.68 29 6 29 C5.67 28.01 5.34 27.02 5 26 C5 26.66 5 27.32 5 28 C3.35 28 1.7 28 0 28 C0 18.66666667 0 9.33333333 0 0 Z " fill="#191D1A" transform="translate(80,64)"/>
<path d="M0 0 C18.48 0 36.96 0 56 0 C55.34 0.99 54.68 1.98 54 3 C54.144375 3.5775 54.28875 4.155 54.4375 4.75 C55.24361191 7.97444762 54.56055335 10.76124729 54 14 C54.66 14 55.32 14 56 14 C56 14.66 56 15.32 56 16 C55.01 16.495 55.01 16.495 54 17 C54.495 18.98 54.495 18.98 55 21 C54.34 21 53.68 21 53 21 C53 22.98 53 24.96 53 27 C53.66 27 54.32 27 55 27 C54.67 28.32 54.34 29.64 54 31 C54.66 31 55.32 31 56 31 C56 31.66 56 32.32 56 33 C55.34 33 54.68 33 54 33 C54 34.98 54 36.96 54 39 C54.99 39.495 54.99 39.495 56 40 C54.35 40 52.7 40 51 40 C51 40.66 51 41.32 51 42 C43.65687204 41.39810427 43.65687204 41.39810427 40.9375 39.75 C40 38 40 38 40 35.5 C41.29915377 32.25211559 42.91819483 31.50139226 46 30 C45.195625 29.690625 44.39125 29.38125 43.5625 29.0625 C41 28 41 28 40 27 C39.625 24.1875 39.625 24.1875 40 21 C42.1875 18.625 42.1875 18.625 45 17 C46.65 17 48.3 17 50 17 C50 12.38 50 7.76 50 3 C49.34 2.67 48.68 2.34 48 2 C48 2.66 48 3.32 48 4 C46.35 4 44.7 4 43 4 C42.67 4.99 42.34 5.98 42 7 C43.98 7.33 45.96 7.66 48 8 C48.93065133 10.60582371 49.14917407 11.64198224 48.0625 14.25 C47.5365625 15.11625 47.5365625 15.11625 47 16 C44.6875 16.25 44.6875 16.25 42 16 C40.1875 14 40.1875 14 39 12 C38.34 12.33 37.68 12.66 37 13 C37.66 13.33 38.32 13.66 39 14 C39.16404778 18.26524223 39.26748556 21.31533597 37 25 C37 25.33 37 25.66 37 26 C37.66 26.33 38.32 26.66 39 27 C39.625 30.0625 39.625 30.0625 40 33 C39.34 33 38.68 33 38 33 C38 34.32 38 35.64 38 37 C36.35 37 34.7 37 33 37 C32.34 35.68 31.68 34.36 31 33 C30.34 33 29.68 33 29 33 C28.74969023 35.41619823 28.74969023 35.41619823 29 38 C29.99 38.66 30.98 39.32 32 40 C32 39.34 32 38.68 32 38 C33.65 38.33 35.3 38.66 37 39 C35.02 39.495 35.02 39.495 33 40 C33 40.99 33 41.98 33 43 C34.32 43.33 35.64 43.66 37 44 C32.33333333 44 27.66666667 44 23 44 C22 41 22 41 22.5 38.9375 C23.11770738 35.30846917 22.70261818 32.13513464 22.25390625 28.5 C21.99788995 25.97922408 21.96150819 23.53190548 22 21 C22 20.34 22 19.68 22 19 C22.32033957 16.99787771 22.65259077 14.99760305 23 13 C22.34 12.67 21.68 12.34 21 12 C21 13.32 21 14.64 21 16 C18.69 16 16.38 16 14 16 C15.39195915 18.7839183 17.15575779 18.97898997 20 20 C20.33 22.64 20.66 25.28 21 28 C18.69 28 16.38 28 14 28 C14 28.66 14 29.32 14 30 C13.01 30.33 12.02 30.66 11 31 C11.66 31.66 12.32 32.32 13 33 C12.34 33 11.68 33 11 33 C11.33 35.31 11.66 37.62 12 40 C10.35 40 8.7 40 7 40 C6.875 32.375 6.875 32.375 8 29 C7.34 29 6.68 29 6 29 C5.67 28.01 5.34 27.02 5 26 C5 26.66 5 27.32 5 28 C3.35 28 1.7 28 0 28 C0 18.66666667 0 9.33333333 0 0 Z " fill="#282A28" transform="translate(80,64)"/>
<path d="M0 0 C1.32102974 0.0001133 1.32102974 0.0001133 2.66874695 0.00022888 C3.61570938 0.00539017 4.56267181 0.01055145 5.53833008 0.01586914 C6.51071121 0.01728409 7.48309235 0.01869904 8.48493958 0.02015686 C11.59261137 0.02575722 14.70021129 0.03830977 17.80786133 0.05102539 C19.91398008 0.05604034 22.02009996 0.06060326 24.1262207 0.06469727 C29.29096197 0.07572677 34.45564946 0.09299164 39.62036133 0.11352539 C42.77906082 21.60568396 42.77906082 21.60568396 37.93286133 29.09399414 C35.2742349 32.51895079 32.32635947 35.61117044 29.17749023 38.58764648 C27.40189411 40.26208701 27.40189411 40.26208701 25.31958008 43.03930664 C24.75883789 43.72379883 24.1980957 44.40829102 23.62036133 45.11352539 C22.96036133 45.11352539 22.30036133 45.11352539 21.62036133 45.11352539 C20.56958008 43.70727539 20.56958008 43.70727539 19.30786133 41.61352539 C17.21738212 38.31660047 14.97865749 35.29786618 12.44067383 32.34008789 C1.50761725 19.591256 1.50761725 19.591256 0.03051758 11.32446289 C-0.49343841 8.50009059 -1.78245833 6.4712678 -3.37963867 4.11352539 C-3.37963867 3.45352539 -3.37963867 2.79352539 -3.37963867 2.11352539 C-4.69963867 1.78352539 -6.01963867 1.45352539 -7.37963867 1.11352539 C-4.57426564 0.17840105 -2.89798503 -0.00830368 0 0 Z " fill="#C89E96" transform="translate(88.379638671875,-0.113525390625)"/>
<path d="M0 0 C0 0.66 0 1.32 0 2 C0.78375 1.95875 1.5675 1.9175 2.375 1.875 C5 2 5 2 7 4 C7.33 3.67 7.66 3.34 8 3 C11.66344611 2.86431681 14.50615721 2.83538574 18 4 C18 4.99 18 5.98 18 7 C18.66 7 19.32 7 20 7 C20.33 5.68 20.66 4.36 21 3 C21.66 3.33 22.32 3.66 23 4 C22.34 5.65 21.68 7.3 21 9 C21.66 9.33 22.32 9.66 23 10 C23.16404778 14.26524223 23.26748556 17.31533597 21 21 C21 21.33 21 21.66 21 22 C21.66 22.33 22.32 22.66 23 23 C23.625 26.0625 23.625 26.0625 24 29 C23.34 29 22.68 29 22 29 C22 30.32 22 31.64 22 33 C20.35 33 18.7 33 17 33 C16.34 31.68 15.68 30.36 15 29 C14.34 29 13.68 29 13 29 C12.74969023 31.41619823 12.74969023 31.41619823 13 34 C13.99 34.66 14.98 35.32 16 36 C16 35.34 16 34.68 16 34 C17.65 34.33 19.3 34.66 21 35 C19.02 35.495 19.02 35.495 17 36 C17 36.99 17 37.98 17 39 C18.32 39.33 19.64 39.66 21 40 C16.33333333 40 11.66666667 40 7 40 C6 37 6 37 6.5 34.9375 C7.11770738 31.30846917 6.70261818 28.13513464 6.25390625 24.5 C5.99788995 21.97922408 5.96150819 19.53190548 6 17 C6 16.34 6 15.68 6 15 C6.32033957 12.99787771 6.65259077 10.99760305 7 9 C6.34 8.67 5.68 8.34 5 8 C5 9.32 5 10.64 5 12 C2.69 12 0.38 12 -2 12 C-0.60804085 14.7839183 1.15575779 14.97898997 4 16 C4.33 18.64 4.66 21.28 5 24 C2.69 24 0.38 24 -2 24 C-2 24.66 -2 25.32 -2 26 C-2.99 26.33 -3.98 26.66 -5 27 C-4.34 27.66 -3.68 28.32 -3 29 C-3.66 29 -4.32 29 -5 29 C-4.67 31.31 -4.34 33.62 -4 36 C-5.65 36 -7.3 36 -9 36 C-9.125 28.375 -9.125 28.375 -8 25 C-8.66 25 -9.32 25 -10 25 C-10.26618595 18.04958914 -9.6120509 11.76485645 -8 5 C-8.66 5 -9.32 5 -10 5 C-10 4.01 -10 3.02 -10 2 C-6.3558226 -0.4294516 -4.28758728 -0.16179575 0 0 Z " fill="#3F201C" transform="translate(96,68)"/>
<path d="M0 0 C4.875 0.875 4.875 0.875 6 2 C6.04092937 4.33297433 6.04241723 6.66705225 6 9 C0.25 10.125 0.25 10.125 -2 9 C-2 9.99 -2 10.98 -2 12 C-2.99 12.495 -2.99 12.495 -4 13 C-4.46523063 14.89533342 -4.46523063 14.89533342 -4.625 17.0625 C-4.810625 19.0115625 -4.810625 19.0115625 -5 21 C-4.24074219 21.02578125 -3.48148438 21.0515625 -2.69921875 21.078125 C-1.70535156 21.13484375 -0.71148437 21.1915625 0.3125 21.25 C1.79169922 21.31960937 1.79169922 21.31960937 3.30078125 21.390625 C6 22 6 22 7.85546875 23.796875 C9 26 9 26 9 30 C9.66 30 10.32 30 11 30 C10.505 27.525 10.505 27.525 10 25 C11.65 25 13.3 25 15 25 C14.01 26.98 13.02 28.96 12 31 C12.66 31.33 13.32 31.66 14 32 C14 32.66 14 33.32 14 34 C14.66 34 15.32 34 16 34 C16.33 33.01 16.66 32.02 17 31 C18.98 31.66 20.96 32.32 23 33 C22.505 33.99 22.505 33.99 22 35 C20.35 34.67 18.7 34.34 17 34 C17.33 34.66 17.66 35.32 18 36 C20.52733235 36.65555119 20.52733235 36.65555119 23 37 C22.34 38.98 21.68 40.96 21 43 C21.66 43.66 22.32 44.32 23 45 C23 46.32 23 47.64 23 49 C16.92479812 49.9170116 11.12433942 50 5 50 C4.67 49.34 4.34 48.68 4 48 C3.34 48 2.68 48 2 48 C2 47.34 2 46.68 2 46 C0.35 46 -1.3 46 -3 46 C-3 44.35 -3 42.7 -3 41 C-1.35 41 0.3 41 2 41 C2 40.34 2 39.68 2 39 C0.02 39.495 0.02 39.495 -2 40 C-1.67 39.01 -1.34 38.02 -1 37 C-0.34 37 0.32 37 1 37 C1 36.34 1 35.68 1 35 C-0.65 35.66 -2.3 36.32 -4 37 C-4 37.66 -4 38.32 -4 39 C-4.66 39 -5.32 39 -6 39 C-6 40.98 -6 42.96 -6 45 C-5.34 45.33 -4.68 45.66 -4 46 C-5.65 46 -7.3 46 -9 46 C-8.67 43.69 -8.34 41.38 -8 39 C-8.99 39 -9.98 39 -11 39 C-11.5625 37.0625 -11.5625 37.0625 -12 35 C-11.505 34.505 -11.505 34.505 -11 34 C-10.92820036 32.48071962 -10.91607993 30.95832518 -10.9375 29.4375 C-10.94652344 28.61121094 -10.95554687 27.78492187 -10.96484375 26.93359375 C-10.97644531 26.29550781 -10.98804687 25.65742187 -11 25 C-10.34 25 -9.68 25 -9 25 C-9 24.01 -9 23.02 -9 22 C-9.99 22.33 -10.98 22.66 -12 23 C-11.625 20.5625 -11.625 20.5625 -11 18 C-10.34 17.67 -9.68 17.34 -9 17 C-9 14.03 -9 11.06 -9 8 C-7.02 8 -5.04 8 -3 8 C-2.34 6.68 -1.68 5.36 -1 4 C0.32 4 1.64 4 3 4 C3 3.34 3 2.68 3 2 C1.68 2.33 0.36 2.66 -1 3 C-0.67 2.01 -0.34 1.02 0 0 Z " fill="#1C232D" transform="translate(95,95)"/>
<path d="M0 0 C0.99 0.33 1.98 0.66 3 1 C2.34 2.98 1.68 4.96 1 7 C1.66 7.33 2.32 7.66 3 8 C2.835 8.495 2.67 8.99 2.5 9.5 C1.62331682 13.88341589 1.62895807 18.268471 2.5625 22.625 C3.11365415 25.61697968 2.61868681 28.04405191 2 31 C2.928125 31 3.85625 31 4.8125 31 C6.875 31 8.9375 31 11 31 C11.66 29.68 12.32 28.36 13 27 C12.34 26.67 11.68 26.34 11 26 C11 26.66 11 27.32 11 28 C9.35 27.34 7.7 26.68 6 26 C6.66 25.67 7.32 25.34 8 25 C8 23.68 8 22.36 8 21 C8.99 20.67 9.98 20.34 11 20 C11.04125 20.598125 11.0825 21.19625 11.125 21.8125 C11.87739901 24.35100832 11.87739901 24.35100832 15.0625 25.75 C16.031875 26.1625 17.00125 26.575 18 27 C18.32613618 31.67461851 17.70582788 34.16674383 15 38 C16.485 38.495 16.485 38.495 18 39 C18 40.98 18 42.96 18 45 C17.34 45 16.68 45 16 45 C16 46.32 16 47.64 16 49 C15.34 49 14.68 49 14 49 C14 48.01 14 47.02 14 46 C13.34 46 12.68 46 12 46 C12 47.32 12 48.64 12 50 C11.34 50 10.68 50 10 50 C10 50.99 10 51.98 10 53 C9.34 53 8.68 53 8 53 C8 52.34 8 51.68 8 51 C6.35 51 4.7 51 3 51 C3.99 50.34 4.98 49.68 6 49 C7.19232613 46.94996045 7.19232613 46.94996045 8 45 C7.01 45 6.02 45 5 45 C5 46.32 5 47.64 5 49 C3.68 49 2.36 49 1 49 C0.67 46.36 0.34 43.72 0 41 C-0.62648438 41.01160156 -1.25296875 41.02320313 -1.8984375 41.03515625 C-2.71570313 41.04417969 -3.53296875 41.05320313 -4.375 41.0625 C-5.59316406 41.07990234 -5.59316406 41.07990234 -6.8359375 41.09765625 C-9 41 -9 41 -11 40 C-11 36.7 -11 33.4 -11 30 C-10.01 30.33 -9.02 30.66 -8 31 C-8 30.01 -8 29.02 -8 28 C-5.36 28 -2.72 28 0 28 C-0.33 25.69 -0.66 23.38 -1 21 C-2.65 20.67 -4.3 20.34 -6 20 C-6.33 20.66 -6.66 21.32 -7 22 C-5.68 21.67 -4.36 21.34 -3 21 C-3 21.66 -3 22.32 -3 23 C-3.639375 23.103125 -4.27875 23.20625 -4.9375 23.3125 C-5.9584375 23.6528125 -5.9584375 23.6528125 -7 24 C-7.33 24.99 -7.66 25.98 -8 27 C-8.66 27 -9.32 27 -10 27 C-10 23.66666667 -10 20.33333333 -10 17 C-9.01 17.33 -8.02 17.66 -7 18 C-7 17.34 -7 16.68 -7 16 C-5.02 15.67 -3.04 15.34 -1 15 C-1.33 12.69 -1.66 10.38 -2 8 C-4.475 7.01 -4.475 7.01 -7 6 C-7 5.34 -7 4.68 -7 4 C-4.69 4 -2.38 4 0 4 C0 2.68 0 1.36 0 0 Z " fill="#103D38" transform="translate(101,76)"/>
<path d="M0 0 C2.8946966 2.8946966 3.94030232 4.57442791 4.515625 8.67578125 C4.37074719 14.13742475 1.25089226 17.27054881 -2.25 21.1875 C-2.83652344 21.87263672 -3.42304687 22.55777344 -4.02734375 23.26367188 C-5.16243577 24.58879616 -6.30599449 25.90672752 -7.45898438 27.21630859 C-8.79347561 28.7609526 -10.05290295 30.36984822 -11.296875 31.98828125 C-11.85890625 32.65214844 -12.4209375 33.31601562 -13 34 C-13.66 34 -14.32 34 -15 34 C-16.4375 32.13671875 -16.4375 32.13671875 -18 29.6875 C-18.515625 28.88699219 -19.03125 28.08648437 -19.5625 27.26171875 C-20.036875 26.51535156 -20.51125 25.76898438 -21 25 C-21.66 24.01 -22.32 23.02 -23 22 C-22.81738256 19.16942976 -22.0390789 18.04581664 -20.1875 15.875 C-18 14 -18 14 -15.875 13 C-13.8377322 12.14999096 -13.8377322 12.14999096 -13.0625 10.0625 C-11.61368684 7.25009798 -9.78494207 6.39247104 -7 5 C-6.34 5 -5.68 5 -5 5 C-5 4.34 -5 3.68 -5 3 C-4.34 3 -3.68 3 -3 3 C-3 3.66 -3 4.32 -3 5 C-2.34 5 -1.68 5 -1 5 C-0.67 3.35 -0.34 1.7 0 0 Z " fill="#D2A89F" transform="translate(125,11)"/>
<path d="M0 0 C0.68384766 0.23396484 1.36769531 0.46792969 2.07226562 0.70898438 C3.73758501 1.27961829 5.40032493 1.85777098 7.0625 2.4375 C7.0625 3.7575 7.0625 5.0775 7.0625 6.4375 C1.35859632 9.28945184 -6.09084286 6.9533 -11.9375 5.4375 C-12.21980469 6.0459375 -12.50210938 6.654375 -12.79296875 7.28125 C-13.9375 9.4375 -13.9375 9.4375 -16.25 11.9375 C-20.1102271 16.37216566 -21.87392389 22.01073388 -23.9375 27.4375 C-24.5975 27.4375 -25.2575 27.4375 -25.9375 27.4375 C-29.9147335 22.09552952 -29.82427768 16.84833312 -28.9375 10.4375 C-27.65825128 7.1241968 -25.99990819 4.31906186 -23.9375 1.4375 C-23.19693359 0.34888672 -23.19693359 0.34888672 -22.44140625 -0.76171875 C-20.9375 -2.5625 -20.9375 -2.5625 -18.1875 -3.375 C-11.71622922 -3.74834255 -6.02340847 -2.11026185 0 0 Z " fill="#CE9D99" transform="translate(84.9375,159.5625)"/>
<path d="M0 0 C11.88 0 23.76 0 36 0 C36 3.63 36 7.26 36 11 C35.67 11 35.34 11 35 11 C35 9.02 35 7.04 35 5 C34.34 5 33.68 5 33 5 C33 5.99 33 6.98 33 8 C32.01 8 31.02 8 30 8 C29.91492188 8.58394531 29.82984375 9.16789063 29.7421875 9.76953125 C28.78938009 12.63296827 27.41734551 13.75202146 25.125 15.6875 C24.42632812 16.28949219 23.72765625 16.89148438 23.0078125 17.51171875 C19.97047519 19.76313026 17.48052315 20.12263153 13.8125 20.0625 C11.9253125 20.0315625 11.9253125 20.0315625 10 20 C10 19.34 10 18.68 10 18 C8.35 18 6.7 18 5 18 C5 17.34 5 16.68 5 16 C4.01 16 3.02 16 2 16 C1.67 15.01 1.34 14.02 1 13 C7.27 12.67 13.54 12.34 20 12 C20 11.34 20 10.68 20 10 C20.66 10 21.32 10 22 10 C22 9.34 22 8.68 22 8 C21.01 8 20.02 8 19 8 C18.67 6.35 18.34 4.7 18 3 C15.36 3 12.72 3 10 3 C10.99 3.33 11.98 3.66 13 4 C12.67 5.32 12.34 6.64 12 8 C6.68720127 8.43547531 6.68720127 8.43547531 4 8 C1.81369367 5.39053761 1.07207819 3.21623458 0 0 Z " fill="#B98881" transform="translate(92,0)"/>
<path d="M0 0 C0.67812114 1.8708878 1.3419946 3.74694293 2 5.625 C2.37125 6.66914063 2.7425 7.71328125 3.125 8.7890625 C4.19115134 12.70145717 4.86222894 16.27554212 3 20 C0.4375 20.625 0.4375 20.625 -2 21 C-3.17232685 19.3790787 -4.3377077 17.75313167 -5.5 16.125 C-6.47453125 14.76761719 -6.47453125 14.76761719 -7.46875 13.3828125 C-9 11 -9 11 -9 9 C-14.13476247 10.12385353 -14.13476247 10.12385353 -19 12 C-21.6723621 12.13415472 -24.32250488 12.04318541 -27 12 C-27.33 10.35 -27.66 8.7 -28 7 C-18.74879458 2.03176005 -10.57919353 -0.6077409 0 0 Z " fill="#C59994" transform="translate(153,160)"/>
<path d="M0 0 C0.94875 0.04125 1.8975 0.0825 2.875 0.125 C2.215 2.105 1.555 4.085 0.875 6.125 C1.865 6.785 2.855 7.445 3.875 8.125 C3.83375 7.17625 3.7925 6.2275 3.75 5.25 C3.875 2.125 3.875 2.125 5.875 0.125 C9 0 9 0 11.875 0.125 C11.545 1.094375 11.215 2.06375 10.875 3.0625 C9.82326637 5.74649574 9.82326637 5.74649574 9.875 7.125 C10.535 7.455 11.195 7.785 11.875 8.125 C12.5 11.1875 12.5 11.1875 12.875 14.125 C12.215 14.125 11.555 14.125 10.875 14.125 C10.875 15.445 10.875 16.765 10.875 18.125 C9.225 18.125 7.575 18.125 5.875 18.125 C5.215 16.805 4.555 15.485 3.875 14.125 C3.215 14.125 2.555 14.125 1.875 14.125 C1.62469023 16.54119823 1.62469023 16.54119823 1.875 19.125 C2.865 19.785 3.855 20.445 4.875 21.125 C4.875 20.465 4.875 19.805 4.875 19.125 C6.525 19.455 8.175 19.785 9.875 20.125 C8.555 20.455 7.235 20.785 5.875 21.125 C5.875 22.115 5.875 23.105 5.875 24.125 C7.195 24.455 8.515 24.785 9.875 25.125 C5.20833333 25.125 0.54166667 25.125 -4.125 25.125 C-5.125 22.125 -5.125 22.125 -4.625 20.0625 C-4.00729262 16.43346917 -4.42238182 13.26013464 -4.87109375 9.625 C-5.12983986 7.07734601 -5.30207643 4.68181082 -5.125 2.125 C-3.125 0.125 -3.125 0.125 0 0 Z " fill="#DCAD4C" transform="translate(107.125,82.875)"/>
<path d="M0 0 C0.99 0.33 1.98 0.66 3 1 C3.6875 3.0625 3.6875 3.0625 4 5 C3.34 5 2.68 5 2 5 C2 6.98 2 8.96 2 11 C2.66 11 3.32 11 4 11 C3.67 12.32 3.34 13.64 3 15 C3.66 15 4.32 15 5 15 C5 15.66 5 16.32 5 17 C4.34 17 3.68 17 3 17 C3 18.98 3 20.96 3 23 C3.66 23.33 4.32 23.66 5 24 C3.35 24 1.7 24 0 24 C0 24.66 0 25.32 0 26 C-7.34312796 25.39810427 -7.34312796 25.39810427 -10.0625 23.75 C-11 22 -11 22 -11 19.5 C-9.70084623 16.25211559 -8.08180517 15.50139226 -5 14 C-5.804375 13.690625 -6.60875 13.38125 -7.4375 13.0625 C-10 12 -10 12 -11 11 C-11.375 8.1875 -11.375 8.1875 -11 5 C-8.46052538 2.24285613 -7.02405153 1.0698217 -3.25 0.8125 C-2.13625 0.9053125 -2.13625 0.9053125 -1 1 C-0.67 0.67 -0.34 0.34 0 0 Z " fill="#332E22" transform="translate(131,80)"/>
<path d="M0 0 C4.14581887 -0.02886751 8.29161216 -0.04675327 12.4375 -0.0625 C14.21350586 -0.07506836 14.21350586 -0.07506836 16.02539062 -0.08789062 C17.15009766 -0.09111328 18.27480469 -0.09433594 19.43359375 -0.09765625 C20.47572021 -0.10289307 21.51784668 -0.10812988 22.59155273 -0.11352539 C25 -0 25 -0 26 1 C26.04092937 3.33297433 26.04241723 5.66705225 26 8 C25.67 8 25.34 8 25 8 C25 6.35 25 4.7 25 3 C22.37098712 4.52206009 20.15634036 5.84365964 18 8 C17.01 8 16.02 8 15 8 C15 8.66 15 9.32 15 10 C14.01 10 13.02 10 12 10 C12 10.66 12 11.32 12 12 C11.34 12 10.68 12 10 12 C9.67 12.99 9.34 13.98 9 15 C8.01 15.495 8.01 15.495 7 16 C6.67 16.99 6.34 17.98 6 19 C3.9375 20.6875 3.9375 20.6875 2 22 C0.00881759 17.02988327 -0.24845695 12.87666865 -0.125 7.625 C-0.11597656 6.88894531 -0.10695313 6.15289062 -0.09765625 5.39453125 C-0.07430144 3.5962112 -0.03843836 1.79806089 0 0 Z " fill="#171818" transform="translate(128,0)"/>
<path d="M0 0 C0.33 0.66 0.66 1.32 1 2 C3.02463255 2.65213292 3.02463255 2.65213292 5 3 C4.67 4.65 4.34 6.3 4 8 C2.02 8.66 0.04 9.32 -2 10 C-1.67 10.763125 -1.34 11.52625 -1 12.3125 C0 15 0 15 0 18 C0.99 18 1.98 18 3 18 C2.34 18.99 1.68 19.98 1 21 C0.34 21 -0.32 21 -1 21 C-0.814375 22.299375 -0.62875 23.59875 -0.4375 24.9375 C-0.12109375 27.15234375 -0.12109375 27.15234375 0 29 C-1 30 -1 30 -4.6875 30.1875 C-8.45205454 30.15370687 -11.46824036 29.34543224 -15 28 C-15.66 28 -16.32 28 -17 28 C-16.690625 27.4225 -16.38125 26.845 -16.0625 26.25 C-14.94428507 24.10451766 -14.94428507 24.10451766 -14.58349609 22.04614258 C-13.44685063 18.06027411 -9.88065447 15.06577697 -7.125 12.04101562 C-3.76057844 8.23130298 -1.77758097 4.7704469 0 0 Z " fill="#252624" transform="translate(129,20)"/>
<path d="M0 0 C0 0.66 0 1.32 0 2 C-0.66 2 -1.32 2 -2 2 C-2 3.98 -2 5.96 -2 8 C-1.01 8.33 -0.02 8.66 1 9 C0.34 10.65 -0.32 12.3 -1 14 C-1.66 14 -2.32 14 -3 14 C-3 15.98 -3 17.96 -3 20 C-2.34 20.33 -1.68 20.66 -1 21 C-2.134375 21.12375 -3.26875 21.2475 -4.4375 21.375 C-6.2009375 21.684375 -6.2009375 21.684375 -8 22 C-8.33 22.66 -8.66 23.32 -9 24 C-14.875 20.125 -14.875 20.125 -16 19 C-16.14353165 16.41643036 -16.03371882 14.16016438 -15.5 11.625 C-14.8828775 8.38510689 -14.93548844 5.29008962 -15 2 C-14.34 2 -13.68 2 -13 2 C-12.814375 3.2065625 -12.814375 3.2065625 -12.625 4.4375 C-12.41875 5.283125 -12.2125 6.12875 -12 7 C-11.34 7.33 -10.68 7.66 -10 8 C-10 5.69 -10 3.38 -10 1 C-10.66 0.67 -11.32 0.34 -12 0 C-3.42857143 -1.28571429 -3.42857143 -1.28571429 0 0 Z " fill="#1D1C21" transform="translate(135,120)"/>
<path d="M0 0 C0.99 0.33 1.98 0.66 3 1 C2.34 2.98 1.68 4.96 1 7 C1.66 7.33 2.32 7.66 3 8 C2.835 8.495 2.67 8.99 2.5 9.5 C1.62331682 13.88341589 1.62895807 18.268471 2.5625 22.625 C3.11618837 25.63073689 2.56066219 28.00980167 2 31 C1.96377667 32.66627298 1.95100158 34.33405374 2 36 C1.01 36 0.02 36 -1 36 C-1 34.68 -1 33.36 -1 32 C-2.98 32 -4.96 32 -7 32 C-7 32.66 -7 33.32 -7 34 C-5.515 33.505 -5.515 33.505 -4 33 C-3 36 -3 36 -3 39 C-3.66 39 -4.32 39 -5 39 C-5 38.01 -5 37.02 -5 36 C-5.99 36 -6.98 36 -8 36 C-8 37.32 -8 38.64 -8 40 C-8.99 40 -9.98 40 -11 40 C-11 36.7 -11 33.4 -11 30 C-10.01 30.33 -9.02 30.66 -8 31 C-8 30.01 -8 29.02 -8 28 C-5.36 28 -2.72 28 0 28 C-0.33 25.69 -0.66 23.38 -1 21 C-2.65 20.67 -4.3 20.34 -6 20 C-6.33 20.66 -6.66 21.32 -7 22 C-5.68 21.67 -4.36 21.34 -3 21 C-3 21.66 -3 22.32 -3 23 C-3.639375 23.103125 -4.27875 23.20625 -4.9375 23.3125 C-5.9584375 23.6528125 -5.9584375 23.6528125 -7 24 C-7.33 24.99 -7.66 25.98 -8 27 C-8.66 27 -9.32 27 -10 27 C-10 23.66666667 -10 20.33333333 -10 17 C-9.01 17.33 -8.02 17.66 -7 18 C-7 17.34 -7 16.68 -7 16 C-5.02 15.67 -3.04 15.34 -1 15 C-1.33 12.69 -1.66 10.38 -2 8 C-4.475 7.01 -4.475 7.01 -7 6 C-7 5.34 -7 4.68 -7 4 C-4.69 4 -2.38 4 0 4 C0 2.68 0 1.36 0 0 Z " fill="#2A2620" transform="translate(101,76)"/>
<path d="M0 0 C11.22 0 22.44 0 34 0 C33.34 0.99 32.68 1.98 32 3 C32.144375 3.5775 32.28875 4.155 32.4375 4.75 C33.24361191 7.97444762 32.56055335 10.76124729 32 14 C32.66 14 33.32 14 34 14 C34 14.66 34 15.32 34 16 C32.35 16 30.7 16 29 16 C28.95101562 15.07316406 28.90203125 14.14632812 28.8515625 13.19140625 C28.77679688 11.99386719 28.70203125 10.79632813 28.625 9.5625 C28.55539063 8.36753906 28.48578125 7.17257813 28.4140625 5.94140625 C28.27742188 4.97074219 28.14078125 4.00007813 28 3 C27.34 2.67 26.68 2.34 26 2 C26 2.66 26 3.32 26 4 C24.35 4 22.7 4 21 4 C20.67 4.99 20.34 5.98 20 7 C22.97 7.495 22.97 7.495 26 8 C26.93065133 10.60582371 27.14917407 11.64198224 26.0625 14.25 C25.5365625 15.11625 25.5365625 15.11625 25 16 C22.6875 16.25 22.6875 16.25 20 16 C17.72563151 13.64139564 16.37339641 10.95808458 15 8 C14.67 8.99 14.34 9.98 14 11 C13.34 11 12.68 11 12 11 C12 10.01 12 9.02 12 8 C11.34 7.67 10.68 7.34 10 7 C10.99 5.35 11.98 3.7 13 2 C8.71 1.67 4.42 1.34 0 1 C0 0.67 0 0.34 0 0 Z " fill="#542422" transform="translate(102,64)"/>
<path d="M0 0 C0.33 0 0.66 0 1 0 C1.495 5.94 1.495 5.94 2 12 C-13.84 12 -29.68 12 -46 12 C-46 11.67 -46 11.34 -46 11 C-44.74445313 10.90203125 -43.48890625 10.8040625 -42.1953125 10.703125 C-30.40720859 9.72290547 -30.40720859 9.72290547 -19.2734375 5.95703125 C-13.92261316 3.70453647 -7.63094989 2.17976271 -2 4 C-2 4.99 -2 5.98 -2 7 C-1.34 4.69 -0.68 2.38 0 0 Z " fill="#1F2B3A" transform="translate(163,213)"/>
<path d="M0 0 C0.20625 0.598125 0.4125 1.19625 0.625 1.8125 C2.50926082 4.81018767 4.81132084 5.61361776 8 7 C8.32613618 11.67461851 7.70582788 14.16674383 5 18 C5.99 18.33 6.98 18.66 8 19 C8 20.98 8 22.96 8 25 C7.34 25 6.68 25 6 25 C6 26.32 6 27.64 6 29 C5.34 29 4.68 29 4 29 C4 28.01 4 27.02 4 26 C3.34 26 2.68 26 2 26 C1.67 27.32 1.34 28.64 1 30 C-0.02365009 25.33670514 0.3049688 21.69146061 1 17 C0.65340705 14.67841935 0.65340705 14.67841935 0 13 C-0.66 13 -1.32 13 -2 13 C-2.33 14.65 -2.66 16.3 -3 18 C-3.66 18 -4.32 18 -5 18 C-5.33 16.35 -5.66 14.7 -6 13 C-6 14.32 -6 15.64 -6 17 C-6.66 17 -7.32 17 -8 17 C-8 15.35 -8 13.7 -8 12 C-6.71073008 11.63720544 -5.41846728 11.28503302 -4.125 10.9375 C-3.04605469 10.64166016 -3.04605469 10.64166016 -1.9453125 10.33984375 C0 10 0 10 2 11 C2.33 9.68 2.66 8.36 3 7 C2.34 6.67 1.68 6.34 1 6 C1 6.66 1 7.32 1 8 C-1.475 7.01 -1.475 7.01 -4 6 C-3.34 5.67 -2.68 5.34 -2 5 C-2 3.68 -2 2.36 -2 1 C-1.34 0.67 -0.68 0.34 0 0 Z " fill="#145A32" transform="translate(111,96)"/>
<path d="M0 0 C-0.33 0.66 -0.66 1.32 -1 2 C-1.66 1.67 -2.32 1.34 -3 1 C-3 1.66 -3 2.32 -3 3 C-2.34 3 -1.68 3 -1 3 C-1 3.66 -1 4.32 -1 5 C-1.66 5 -2.32 5 -3 5 C-3 6.98 -3 8.96 -3 11 C-2.01 11.33 -1.02 11.66 0 12 C0 12.66 0 13.32 0 14 C-0.66 14 -1.32 14 -2 14 C-2.33 14.66 -2.66 15.32 -3 16 C-2.34 16.33 -1.68 16.66 -1 17 C-1.66 17 -2.32 17 -3 17 C-3 18.98 -3 20.96 -3 23 C-2.34 23 -1.68 23 -1 23 C-0.34 21.68 0.32 20.36 1 19 C2.32 19 3.64 19 5 19 C5 18.34 5 17.68 5 17 C3.68 17.33 2.36 17.66 1 18 C1 17.34 1 16.68 1 16 C2.98 16 4.96 16 7 16 C7.33 18.64 7.66 21.28 8 24 C5.69 24 3.38 24 1 24 C1 24.66 1 25.32 1 26 C0.01 26.33 -0.98 26.66 -2 27 C-1.34 27.66 -0.68 28.32 0 29 C-0.66 29 -1.32 29 -2 29 C-1.67 31.31 -1.34 33.62 -1 36 C-2.65 36 -4.3 36 -6 36 C-6.125 28.375 -6.125 28.375 -5 25 C-5.66 25 -6.32 25 -7 25 C-7.26618595 18.04958914 -6.6120509 11.76485645 -5 5 C-5.66 5 -6.32 5 -7 5 C-7 4.01 -7 3.02 -7 2 C-4 0 -4 0 0 0 Z " fill="#CD8153" transform="translate(93,68)"/>
<path d="M0 0 C4.875 0.875 4.875 0.875 6 2 C6.04092937 4.33297433 6.04241723 6.66705225 6 9 C0.25 10.125 0.25 10.125 -2 9 C-2 9.99 -2 10.98 -2 12 C-2.99 12.495 -2.99 12.495 -4 13 C-4 15.97 -4 18.94 -4 22 C-5.32 22 -6.64 22 -8 22 C-7.98839844 23.05960938 -7.97679688 24.11921875 -7.96484375 25.2109375 C-7.95546524 26.59895658 -7.94636511 27.98697755 -7.9375 29.375 C-7.92912109 30.07367188 -7.92074219 30.77234375 -7.91210938 31.4921875 C-7.88671875 36.7734375 -7.88671875 36.7734375 -9 39 C-9.66 39 -10.32 39 -11 39 C-11.5625 37.0625 -11.5625 37.0625 -12 35 C-11.505 34.505 -11.505 34.505 -11 34 C-10.92820036 32.48071962 -10.91607993 30.95832518 -10.9375 29.4375 C-10.94652344 28.61121094 -10.95554687 27.78492187 -10.96484375 26.93359375 C-10.97644531 26.29550781 -10.98804687 25.65742187 -11 25 C-10.34 25 -9.68 25 -9 25 C-9 24.01 -9 23.02 -9 22 C-9.99 22.33 -10.98 22.66 -12 23 C-11.625 20.5625 -11.625 20.5625 -11 18 C-10.34 17.67 -9.68 17.34 -9 17 C-9 14.03 -9 11.06 -9 8 C-7.02 8 -5.04 8 -3 8 C-2.34 6.68 -1.68 5.36 -1 4 C0.32 4 1.64 4 3 4 C3 3.34 3 2.68 3 2 C1.68 2.33 0.36 2.66 -1 3 C-0.67 2.01 -0.34 1.02 0 0 Z " fill="#1E232C" transform="translate(95,95)"/>
<path d="M0 0 C0.66 0 1.32 0 2 0 C2 0.66 2 1.32 2 2 C3.65 2 5.3 2 7 2 C7.66 3.98 8.32 5.96 9 8 C8.34 8 7.68 8 7 8 C7 9.32 7 10.64 7 12 C4.69 12 2.38 12 0 12 C1.25541557 14.51083114 2.50063488 14.87125446 5 16 C3.35 16 1.7 16 0 16 C0 16.66 0 17.32 0 18 C1.32 17.67 2.64 17.34 4 17 C4 17.66 4 18.32 4 19 C3.071875 19.12375 3.071875 19.12375 2.125 19.25 C-0.18437567 19.81258459 -0.18437567 19.81258459 -1.25 22.0625 C-1.4975 22.701875 -1.745 23.34125 -2 24 C-2.66 23.67 -3.32 23.34 -4 23 C-4 19.7 -4 16.4 -4 13 C-3.01 13.33 -2.02 13.66 -1 14 C-1.495 13.62875 -1.99 13.2575 -2.5 12.875 C-4.59755514 10.25305607 -4.21743835 8.26157528 -4 5 C-3.34 5 -2.68 5 -2 5 C-2 4.34 -2 3.68 -2 3 C-2.66 3 -3.32 3 -4 3 C-4 2.34 -4 1.68 -4 1 C-2.68 1.33 -1.36 1.66 0 2 C0 1.34 0 0.68 0 0 Z " fill="#372D1D" transform="translate(94,68)"/>
<path d="M0 0 C0.66 0 1.32 0 2 0 C2 0.66 2 1.32 2 2 C2.66 2 3.32 2 4 2 C4 2.66 4 3.32 4 4 C3.34 4 2.68 4 2 4 C2 5.65 2 7.3 2 9 C2.66 9 3.32 9 4 9 C4 9.66 4 10.32 4 11 C2.35 11 0.7 11 -1 11 C-1 11.99 -1 12.98 -1 14 C-1.99 14.33 -2.98 14.66 -4 15 C-4 14.34 -4 13.68 -4 13 C-5.98 13 -7.96 13 -10 13 C-10.22174933 11.54364629 -10.42698698 10.08477044 -10.625 8.625 C-10.74101563 7.81289062 -10.85703125 7.00078125 -10.9765625 6.1640625 C-10.98429687 5.44992188 -10.99203125 4.73578125 -11 4 C-9 2 -9 2 -6.5 1.75 C-4 2 -4 2 -2 4 C-2 3.34 -2 2.68 -2 2 C-1.34 2 -0.68 2 0 2 C0 1.34 0 0.68 0 0 Z " fill="#19281F" transform="translate(131,106)"/>
<path d="M0 0 C0.99 0.33 1.98 0.66 3 1 C3.6875 3.0625 3.6875 3.0625 4 5 C3.34 5 2.68 5 2 5 C2 6.98 2 8.96 2 11 C2.66 11.33 3.32 11.66 4 12 C2.1746875 11.9690625 2.1746875 11.9690625 0.3125 11.9375 C-2.27324924 11.92377036 -4.32621677 12.07091669 -6.875 12.625 C-7.57625 12.74875 -8.2775 12.8725 -9 13 C-11 11 -11 11 -11.4375 8.125 C-11 5 -11 5 -8.8125 2.625 C-5.80858719 0.88940593 -4.38481707 0.71793191 -1 1 C-0.67 0.67 -0.34 0.34 0 0 Z " fill="#3A2F25" transform="translate(131,80)"/>
<path d="M0 0 C0.68384766 0.23396484 1.36769531 0.46792969 2.07226562 0.70898438 C3.73758501 1.27961829 5.40032493 1.85777098 7.0625 2.4375 C6.7325 3.4275 6.4025 4.4175 6.0625 5.4375 C3.4225 5.4375 0.7825 5.4375 -1.9375 5.4375 C-1.9375 4.7775 -1.9375 4.1175 -1.9375 3.4375 C-2.845 3.499375 -3.7525 3.56125 -4.6875 3.625 C-10.27179576 3.65954204 -15.59590632 1.91104309 -20.9375 0.4375 C-21.2675 1.0975 -21.5975 1.7575 -21.9375 2.4375 C-21.9375 -0.5625 -21.9375 -0.5625 -20.9375 -2.5625 C-13.57341334 -4.49118936 -6.94703883 -2.43384972 0 0 Z " fill="#CAA09D" transform="translate(84.9375,159.5625)"/>
<path d="M0 0 C0.66 0.99 1.32 1.98 2 3 C1.67 3.99 1.34 4.98 1 6 C1.99 6 2.98 6 4 6 C4 6.66 4 7.32 4 8 C3.34 8 2.68 8 2 8 C2 8.66 2 9.32 2 10 C-3.24565904 10.82826195 -7.7693223 11.3599762 -13 10 C-13.66 8.68 -14.32 7.36 -15 6 C-10.545 5.505 -10.545 5.505 -6 5 C-5.67 4.01 -5.34 3.02 -5 2 C-7.31 2 -9.62 2 -12 2 C-8.07242087 -0.61838609 -4.56228926 -0.36792655 0 0 Z " fill="#D3A498" transform="translate(110,2)"/>
<path d="M0 0 C1.43804732 0.11853752 2.87541 0.24537135 4.3125 0.375 C5.51326172 0.47941406 5.51326172 0.47941406 6.73828125 0.5859375 C9.5507444 0.94296875 12.25768109 1.4452117 15.03515625 2 C20.6203564 3.02148712 26.03142366 3.34177378 31.69921875 3.4140625 C33.14081108 3.44311172 33.14081108 3.44311172 34.61152649 3.4727478 C37.6367649 3.53182299 40.66204288 3.57863654 43.6875 3.625 C45.7571767 3.66324632 47.82683862 3.70230174 49.89648438 3.7421875 C54.93086739 3.83746382 59.96532465 3.92175563 65 4 C65 4.33 65 4.66 65 5 C43.22 5 21.44 5 -1 5 C-0.67 3.35 -0.34 1.7 0 0 Z " fill="#253246" transform="translate(51,220)"/>
<path d="M0 0 C0.99 0.33 1.98 0.66 3 1 C3 5.62 3 10.24 3 15 C1.35 15.33 -0.3 15.66 -2 16 C-3.34882408 16.63474075 -4.6846659 17.29848848 -6 18 C-6.99 18.33 -7.98 18.66 -9 19 C-9 16.69 -9 14.38 -9 12 C-10.65 12 -12.3 12 -14 12 C-11 10 -11 10 -9 10 C-8.67 9.01 -8.34 8.02 -8 7 C-7.34 8.98 -6.68 10.96 -6 13 C-4.35 13 -2.7 13 -1 13 C-0.67 10.69 -0.34 8.38 0 6 C-2.97 5.505 -2.97 5.505 -6 5 C-6 3.68 -6 2.36 -6 1 C-3.03 1.495 -3.03 1.495 0 2 C0 1.34 0 0.68 0 0 Z " fill="#23241E" transform="translate(128,66)"/>
<path d="M0 0 C0 0.66 0 1.32 0 2 C-0.66 2 -1.32 2 -2 2 C-2 3.98 -2 5.96 -2 8 C-1.01 8.33 -0.02 8.66 1 9 C0.01 10.485 0.01 10.485 -1 12 C-2.95903745 11.52372025 -4.91721097 11.04388577 -6.875 10.5625 C-7.96554688 10.29566406 -9.05609375 10.02882812 -10.1796875 9.75390625 C-13 9 -13 9 -15 8 C-15 6.02 -15 4.04 -15 2 C-14.34 2 -13.68 2 -13 2 C-12.814375 3.2065625 -12.814375 3.2065625 -12.625 4.4375 C-12.41875 5.283125 -12.2125 6.12875 -12 7 C-11.34 7.33 -10.68 7.66 -10 8 C-10 5.69 -10 3.38 -10 1 C-10.66 0.67 -11.32 0.34 -12 0 C-3.42857143 -1.28571429 -3.42857143 -1.28571429 0 0 Z " fill="#161F22" transform="translate(135,120)"/>
<path d="M0 0 C1.32 0.66 2.64 1.32 4 2 C4.054138 4.24973447 4.09285491 6.49984383 4.125 8.75 C4.14820313 10.00296875 4.17140625 11.2559375 4.1953125 12.546875 C4.01537302 15.72820492 3.68998582 17.36521896 2 20 C-1.65231372 16.11205314 -2.90919358 13.35757865 -3 8 C-2.21817318 5.17948553 -1.18158604 2.69401618 0 0 Z " fill="#EFEFEF" transform="translate(56,117)"/>
<path d="M0 0 C1.65 0 3.3 0 5 0 C4.01 1.98 3.02 3.96 2 6 C2.66 6.33 3.32 6.66 4 7 C4 7.66 4 8.32 4 9 C4.66 9 5.32 9 6 9 C6.33 8.01 6.66 7.02 7 6 C8.98 6.66 10.96 7.32 13 8 C12.67 8.66 12.34 9.32 12 10 C10.35 9.67 8.7 9.34 7 9 C7.33 9.99 7.66 10.98 8 12 C7.01 12 6.02 12 5 12 C4.01 12.495 4.01 12.495 3 13 C1.00039988 13.039992 -1.00047242 13.04346799 -3 13 C-4.45606519 8.47907032 -3.27032841 5.48351204 -2 1 C-1.67 2.32 -1.34 3.64 -1 5 C-0.34 5 0.32 5 1 5 C0.67 3.35 0.34 1.7 0 0 Z " fill="#17356E" transform="translate(105,120)"/>
<path d="M0 0 C-0.33 0.66 -0.66 1.32 -1 2 C-1.66 1.67 -2.32 1.34 -3 1 C-3 1.66 -3 2.32 -3 3 C-2.34 3 -1.68 3 -1 3 C-1 3.66 -1 4.32 -1 5 C-1.66 5 -2.32 5 -3 5 C-3 6.98 -3 8.96 -3 11 C-2.01 11.33 -1.02 11.66 0 12 C0 12.66 0 13.32 0 14 C-0.66 14 -1.32 14 -2 14 C-2.33 14.66 -2.66 15.32 -3 16 C-2.34 16.33 -1.68 16.66 -1 17 C-1.66 17 -2.32 17 -3 17 C-3 18.98 -3 20.96 -3 23 C-2.34 23.33 -1.68 23.66 -1 24 C-2.98 24.33 -4.96 24.66 -7 25 C-7.26618595 18.04958914 -6.6120509 11.76485645 -5 5 C-5.66 5 -6.32 5 -7 5 C-7 4.01 -7 3.02 -7 2 C-4 0 -4 0 0 0 Z " fill="#CE8657" transform="translate(93,68)"/>
<path d="M0 0 C0.33 0.66 0.66 1.32 1 2 C3.02463255 2.65213292 3.02463255 2.65213292 5 3 C4.67 4.65 4.34 6.3 4 8 C2.02 8.66 0.04 9.32 -2 10 C-1.608125 10.721875 -1.21625 11.44375 -0.8125 12.1875 C0 15 0 15 -1 17.8125 C-3 20 -3 20 -6.1875 20.3125 C-7.115625 20.209375 -8.04375 20.10625 -9 20 C-7.71937515 18.2925002 -6.38232443 16.62626404 -5 15 C-4.34 15 -3.68 15 -3 15 C-3.99 14.01 -4.98 13.02 -6 12 C-4.97379138 9.7897045 -3.94283206 7.92682503 -2.4375 6 C-0.96806014 3.95556194 -0.43835352 2.45477972 0 0 Z " fill="#302D2A" transform="translate(129,20)"/>
<path d="M0 0 C0.94875 0.04125 1.8975 0.0825 2.875 0.125 C2.545 1.094375 2.215 2.06375 1.875 3.0625 C0.82326637 5.74649574 0.82326637 5.74649574 0.875 7.125 C1.535 7.455 2.195 7.785 2.875 8.125 C3.5 11.1875 3.5 11.1875 3.875 14.125 C2.885 14.125 1.895 14.125 0.875 14.125 C0.545 15.115 0.215 16.105 -0.125 17.125 C-0.785 17.125 -1.445 17.125 -2.125 17.125 C-2.24875 16.031875 -2.3725 14.93875 -2.5 13.8125 C-2.87964801 10.05118198 -2.87964801 10.05118198 -5.125 7.125 C-5.375 4.5625 -5.375 4.5625 -5.125 2.125 C-3.125 0.125 -3.125 0.125 0 0 Z " fill="#D7864E" transform="translate(116.125,82.875)"/>
<path d="M0 0 C0 2.31 0 4.62 0 7 C-0.99 6.67 -1.98 6.34 -3 6 C-3 4.35 -3 2.7 -3 1 C-3.66 1 -4.32 1 -5 1 C-5.06058594 1.63808594 -5.12117188 2.27617188 -5.18359375 2.93359375 C-5.26738281 3.75988281 -5.35117188 4.58617188 -5.4375 5.4375 C-5.51871094 6.26121094 -5.59992188 7.08492187 -5.68359375 7.93359375 C-6 10 -6 10 -7 11 C-8.66617115 11.04063832 -10.33388095 11.042721 -12 11 C-12.33 10.01 -12.66 9.02 -13 8 C-11.35 8 -9.7 8 -8 8 C-8 7.67 -8 7.34 -8 7 C-9.65 6.67 -11.3 6.34 -13 6 C-12.67 4.35 -12.34 2.7 -12 1 C-11.34 1 -10.68 1 -10 1 C-10 1.99 -10 2.98 -10 4 C-9.34 4 -8.68 4 -8 4 C-8 2.68 -8 1.36 -8 0 C-4.94736336 -0.98120464 -3.05263664 -0.98120464 0 0 Z " fill="#142735" transform="translate(125,121)"/>
<path d="M0 0 C0 0.66 0 1.32 0 2 C-0.99 2.495 -0.99 2.495 -2 3 C-2 3.66 -2 4.32 -2 5 C-2.66 5 -3.32 5 -4 5 C-4 6.98 -4 8.96 -4 11 C-3.01 11.33 -2.02 11.66 -1 12 C-1.33 13.65 -1.66 15.3 -2 17 C-2.66 17 -3.32 17 -4 17 C-4 18.98 -4 20.96 -4 23 C-3.34 23.33 -2.68 23.66 -2 24 C-3.65 24 -5.3 24 -7 24 C-6.67 16.08 -6.34 8.16 -6 0 C-2 -1 -2 -1 0 0 Z " fill="#144292" transform="translate(93,117)"/>
<path d="M0 0 C0.33 0.99 0.66 1.98 1 3 C3.01508358 3.73323796 3.01508358 3.73323796 5 4 C5 4.66 5 5.32 5 6 C6.32 6.33 7.64 6.66 9 7 C7.68 10.3 6.36 13.6 5 17 C4.34 17 3.68 17 3 17 C0.08509898 13.19580714 -0.34321758 10.41093323 -0.1875 5.6875 C-0.16042969 4.61886719 -0.13335937 3.55023438 -0.10546875 2.44921875 C-0.07066406 1.64097656 -0.03585938 0.83273438 0 0 Z " fill="#A2706D" transform="translate(56,170)"/>
<path d="M0 0 C1.98 0 3.96 0 6 0 C6.33 2.31 6.66 4.62 7 7 C7.99 6.67 8.98 6.34 10 6 C12.6875 6.4375 12.6875 6.4375 15 7 C15.33 7.99 15.66 8.98 16 10 C13.03 9.505 13.03 9.505 10 9 C10 9.99 10 10.98 10 12 C9.01 11.67 8.02 11.34 7 11 C7 10.34 7 9.68 7 9 C4.03 9 1.06 9 -2 9 C-1.67 7.35 -1.34 5.7 -1 4 C-0.01 4 0.98 4 2 4 C2 4.99 2 5.98 2 7 C2.66 7 3.32 7 4 7 C3.67 5.35 3.34 3.7 3 2 C2.01 2 1.02 2 0 2 C0 1.34 0 0.68 0 0 Z " fill="#116537" transform="translate(94,108)"/>
<path d="M0 0 C0 0.33 0 0.66 0 1 C-0.68707031 1.19335938 -1.37414062 1.38671875 -2.08203125 1.5859375 C-2.98308594 1.84632813 -3.88414062 2.10671875 -4.8125 2.375 C-6.15248047 2.75785156 -6.15248047 2.75785156 -7.51953125 3.1484375 C-10.20467896 3.95266661 -10.20467896 3.95266661 -13 6 C-15.6875 6.125 -15.6875 6.125 -18 6 C-18.33 4.68 -18.66 3.36 -19 2 C-12.08837007 -2.43387581 -7.81767314 -2.12686696 0 0 Z " fill="#B78683" transform="translate(144,165)"/>
<path d="M0 0 C1.98 0 3.96 0 6 0 C6 3.3 6 6.6 6 10 C5.34 10 4.68 10 4 10 C4 11.32 4 12.64 4 14 C2.68 14 1.36 14 0 14 C0.33 12.02 0.66 10.04 1 8 C0.01 8 -0.98 8 -2 8 C-2 7.34 -2 6.68 -2 6 C-1.01 6 -0.02 6 1 6 C0.67 4.02 0.34 2.04 0 0 Z " fill="#26241D" transform="translate(82,93)"/>
<path d="M0 0 C0 0.99 0 1.98 0 3 C-2.5 4.6875 -2.5 4.6875 -5 6 C-5.33 5.01 -5.66 4.02 -6 3 C-11.13476247 4.12385353 -11.13476247 4.12385353 -16 6 C-18.6723621 6.13415472 -21.32250488 6.04318541 -24 6 C-24 5.67 -24 5.34 -24 5 C-22.96875 4.731875 -21.9375 4.46375 -20.875 4.1875 C-18.30604502 3.47617581 -16.59068691 2.75813317 -14.25 1.375 C-9.53098003 -0.62150845 -5.05492538 -0.24285229 0 0 Z " fill="#583A3B" transform="translate(150,166)"/>
<path d="M0 0 C4.55555556 0.55555556 4.55555556 0.55555556 6 2 C5.71269945 4.33944736 5.38063221 6.6739143 5 9 C2.125 9.125 2.125 9.125 -1 9 C-1.66 8.34 -2.32 7.68 -3 7 C-2.67028521 3.70285207 -2.3773161 2.3773161 0 0 Z " fill="#C7B648" transform="translate(123,95)"/>
<path d="M0 0 C0.66 0.33 1.32 0.66 2 1 C1.34 2.65 0.68 4.3 0 6 C0.66 6.33 1.32 6.66 2 7 C2 8.65 2 10.3 2 12 C-0.31 12.33 -2.62 12.66 -5 13 C-6.53166168 8.91556885 -5.63081652 5.20544343 -5 1 C-4.34 1 -3.68 1 -3 1 C-3 1.99 -3 2.98 -3 4 C-2.34 4 -1.68 4 -1 4 C-0.67 2.68 -0.34 1.36 0 0 Z " fill="#B91C1D" transform="translate(117,71)"/>
<path d="M0 0 C2.30441554 3.45662331 2.25860135 4.94857881 2 9 C1.67 9.66 1.34 10.32 1 11 C-1.5625 11.625 -1.5625 11.625 -4 12 C-5.98 8.535 -5.98 8.535 -8 5 C-6.865625 4.54625 -5.73125 4.0925 -4.5625 3.625 C-0.95278308 2.42904194 -0.95278308 2.42904194 0 0 Z " fill="#936762" transform="translate(155,169)"/>
<path d="M0 0 C1.4540625 0.0309375 1.4540625 0.0309375 2.9375 0.0625 C2.2775 2.0425 1.6175 4.0225 0.9375 6.0625 C1.5975 6.7225 2.2575 7.3825 2.9375 8.0625 C2.9375 9.3825 2.9375 10.7025 2.9375 12.0625 C0.6275 12.3925 -1.6825 12.7225 -4.0625 13.0625 C-4.3925 12.0725 -4.7225 11.0825 -5.0625 10.0625 C-4.4025 10.0625 -3.7425 10.0625 -3.0625 10.0625 C-3.0625 10.7225 -3.0625 11.3825 -3.0625 12.0625 C-2.0725 11.7325 -1.0825 11.4025 -0.0625 11.0625 C0.2675 10.4025 0.5975 9.7425 0.9375 9.0625 C-0.7125 8.7325 -2.3625 8.4025 -4.0625 8.0625 C-4.10491723 5.72955225 -4.10342937 3.39547433 -4.0625 1.0625 C-3.0625 0.0625 -3.0625 0.0625 0 0 Z " fill="#573D71" transform="translate(115.0625,131.9375)"/>
<path d="M0 0 C1.134375 0.020625 2.26875 0.04125 3.4375 0.0625 C4.5625 5.8125 4.5625 5.8125 3.4375 8.0625 C0.5625 8.1875 0.5625 8.1875 -2.5625 8.0625 C-4.5625 6.0625 -4.5625 6.0625 -4.75 3.5 C-4.45120797 -0.38429636 -4.06574412 0.07132884 0 0 Z " fill="#573C74" transform="translate(123.5625,132.9375)"/>
<path d="M0 0 C3 0.125 3 0.125 4 1.125 C4.1875 4.0625 4.1875 4.0625 4 7.125 C3.34 7.785 2.68 8.445 2 9.125 C-2.55555556 8.56944444 -2.55555556 8.56944444 -4 7.125 C-4.125 4.125 -4.125 4.125 -4 1.125 C-3 0.125 -3 0.125 0 0 Z " fill="#8D5A3C" transform="translate(124,83.875)"/>
<path d="M0 0 C0.66 0.33 1.32 0.66 2 1 C2.59355614 3.64860427 2.74209269 6.29197322 3 9 C4.32 9.33 5.64 9.66 7 10 C6.67 10.99 6.34 11.98 6 13 C5.01 13 4.02 13 3 13 C3 12.34 3 11.68 3 11 C2.46375 11.495 1.9275 11.99 1.375 12.5 C-1.59358445 14.37489544 -3.55312427 14.23501425 -7 14 C-6.67 13.01 -6.34 12.02 -6 11 C-4.02 11 -2.04 11 0 11 C0 10.01 0 9.02 0 8 C-1.65 8.33 -3.3 8.66 -5 9 C-5 8.34 -5 7.68 -5 7 C-3.68 7 -2.36 7 -1 7 C-0.67 4.69 -0.34 2.38 0 0 Z " fill="#382946" transform="translate(109,131)"/>
<path d="M0 0 C2.6015625 0.2421875 2.6015625 0.2421875 5.625 0.875 C6.62789062 1.07867187 7.63078125 1.28234375 8.6640625 1.4921875 C9.43492188 1.65976563 10.20578125 1.82734375 11 2 C11 2.66 11 3.32 11 4 C15.455 3.505 15.455 3.505 20 3 C20 3.66 20 4.32 20 5 C14.29609632 7.85195184 6.84665714 5.5158 1 4 C0.34 5.32 -0.32 6.64 -1 8 C-1.33 8 -1.66 8 -2 8 C-2.125 5.125 -2.125 5.125 -2 2 C-1.34 1.34 -0.68 0.68 0 0 Z " fill="#996766" transform="translate(72,161)"/>
<path d="M0 0 C2.4375 0.1875 2.4375 0.1875 3.4375 1.1875 C3.625 4.125 3.625 4.125 3.4375 7.1875 C2.7775 7.8475 2.1175 8.5075 1.4375 9.1875 C-3.11805556 8.63194444 -3.11805556 8.63194444 -4.5625 7.1875 C-4.75 4.75 -4.75 4.75 -4.5625 2.1875 C-2.5625 0.1875 -2.5625 0.1875 0 0 Z " fill="#0E5C2F" transform="translate(124.5625,107.8125)"/>
<path d="M0 0 C1.65 0 3.3 0 5 0 C5 1.32 5 2.64 5 4 C3.68 4 2.36 4 1 4 C1 4.66 1 5.32 1 6 C1.99 5.67 2.98 5.34 4 5 C5 8 5 8 5 11 C4.34 11 3.68 11 3 11 C3 10.01 3 9.02 3 8 C2.01 8 1.02 8 0 8 C0 9.32 0 10.64 0 12 C-0.99 12 -1.98 12 -3 12 C-3 8.7 -3 5.4 -3 2 C-2.01 2.33 -1.02 2.66 0 3 C0 2.01 0 1.02 0 0 Z " fill="#172B1A" transform="translate(93,104)"/>
<path d="M0 0 C2.97 0.495 2.97 0.495 6 1 C6.93065133 3.60582371 7.14917407 4.64198224 6.0625 7.25 C5.711875 7.8275 5.36125 8.405 5 9 C3.35 9 1.7 9 0 9 C-1.125 6.1875 -1.125 6.1875 -2 3 C-1.34 2.01 -0.68 1.02 0 0 Z " fill="#8A1D1D" transform="translate(122,71)"/>
<path d="M0 0 C0 1.32 0 2.64 0 4 C-3.22791555 6.1519437 -4.28400809 6.20086443 -8 6 C-8 5.34 -8 4.68 -8 4 C-9.11375 4.020625 -10.2275 4.04125 -11.375 4.0625 C-15 4 -15 4 -17 3 C-17 2.34 -17 1.68 -17 1 C-14.54171921 0.83252588 -12.08338135 0.6659856 -9.625 0.5 C-8.92632812 0.45230469 -8.22765625 0.40460937 -7.5078125 0.35546875 C-2.2265625 0 -2.2265625 0 0 0 Z " fill="#92675F" transform="translate(112,13)"/>
<path d="M0 0 C3.3 0.99 6.6 1.98 10 3 C9.67 3.99 9.34 4.98 9 6 C6.36 6 3.72 6 1 6 C1 5.34 1 4.68 1 4 C-0.093125 4.020625 -1.18625 4.04125 -2.3125 4.0625 C-6 4 -6 4 -9 3 C-9 2.34 -9 1.68 -9 1 C-3.25 0.875 -3.25 0.875 -1 2 C-0.67 1.34 -0.34 0.68 0 0 Z " fill="#CE9795" transform="translate(82,159)"/>
<path d="M0 0 C2.5 0.125 2.5 0.125 3.5 1.125 C3.64115161 3.79558851 3.54247107 6.44932238 3.5 9.125 C1.19 9.125 -1.12 9.125 -3.5 9.125 C-3.59765625 2.97265625 -3.59765625 2.97265625 -3.5 1.125 C-2.5 0.125 -2.5 0.125 0 0 Z " fill="#0D386E" transform="translate(96.5,119.875)"/>
<path d="M0 0 C1.99954746 -0.04254356 4.00041636 -0.04080783 6 0 C7 1 7 1 7.09765625 2.84765625 C7.04882812 5.92382812 7.04882812 5.92382812 7 9 C4.69 9 2.38 9 0 9 C-0.33 7.68 -0.66 6.36 -1 5 C0.65 4.67 2.3 4.34 4 4 C4 3.34 4 2.68 4 2 C2.68 2.33 1.36 2.66 0 3 C0 2.01 0 1.02 0 0 Z " fill="#BA1C20" transform="translate(94,71)"/>
<path d="M0 0 C1.24546405 2.49092811 0.7767578 3.41080733 0 6 C-1.32 6 -2.64 6 -4 6 C-2.35 6.33 -0.7 6.66 1 7 C1 7.99 1 8.98 1 10 C-0.98 10 -2.96 10 -5 10 C-5 10.66 -5 11.32 -5 12 C-5.66 12 -6.32 12 -7 12 C-6.67 8.37 -6.34 4.74 -6 1 C-4.02 0.67 -2.04 0.34 0 0 Z " fill="#513365" transform="translate(108,132)"/>
<path d="M0 0 C2.97 0.495 2.97 0.495 6 1 C6 3.64 6 6.28 6 9 C3.36 9 0.72 9 -2 9 C-2 7.35 -2 5.7 -2 4 C-0.35 4 1.3 4 3 4 C3 3.34 3 2.68 3 2 C1.68 2.33 0.36 2.66 -1 3 C-0.67 2.01 -0.34 1.02 0 0 Z " fill="#46305A" transform="translate(94,132)"/>
<path d="M0 0 C4.875 0.875 4.875 0.875 6 2 C6.04092937 4.33297433 6.04241723 6.66705225 6 9 C3.125 9.625 3.125 9.625 0 10 C-0.66 9.34 -1.32 8.68 -2 8 C-1.625 5.875 -1.625 5.875 -1 4 C0.32 4 1.64 4 3 4 C3 3.34 3 2.68 3 2 C1.68 2.33 0.36 2.66 -1 3 C-0.67 2.01 -0.34 1.02 0 0 Z " fill="#D3BE46" transform="translate(95,95)"/>
<path d="M0 0 C-0.185625 0.7425 -0.37125 1.485 -0.5625 2.25 C-0.99203108 4.94990963 -0.85122974 6.44631077 0 9 C-0.721875 8.731875 -1.44375 8.46375 -2.1875 8.1875 C-5.26390537 7.65105845 -5.26390537 7.65105845 -7.8125 10.4375 C-8.534375 11.283125 -9.25625 12.12875 -10 13 C-10.66 12.01 -11.32 11.02 -12 10 C-4.04545455 0 -4.04545455 0 0 0 Z " fill="#252624" transform="translate(56,44)"/>
<path d="M0 0 C2.64 0 5.28 0 8 0 C7.625 1.9375 7.625 1.9375 7 4 C6.01 4.495 6.01 4.495 5 5 C5 7.97 5 10.94 5 14 C3.68 14 2.36 14 1 14 C0.67 9.38 0.34 4.76 0 0 Z " fill="#1F6B36" transform="translate(86,103)"/>
<path d="M0 0 C3.88694884 1.46175854 5.00815228 3.30126163 6.75 7 C7.17796875 7.886875 7.6059375 8.77375 8.046875 9.6875 C9 12 9 12 9 14 C8.34 14 7.68 14 7 14 C6.67 12.68 6.34 11.36 6 10 C4.02 10 2.04 10 0 10 C-1.25733598 6.22799206 -1.03366148 3.74702285 0 0 Z " fill="#121110" transform="translate(145,174)"/>
<path d="M0 0 C1.32 0 2.64 0 4 0 C4.28875 0.639375 4.5775 1.27875 4.875 1.9375 C5.82823451 4.15206079 5.82823451 4.15206079 8 5 C6.75 7 6.75 7 5 9 C3.68 9 2.36 9 1 9 C1 8.34 1 7.68 1 7 C-0.32 6.34 -1.64 5.68 -3 5 C-1.75 2.5 -1.75 2.5 0 0 Z " fill="#C3928D" transform="translate(60,167)"/>
<path d="M0 0 C0.33 0 0.66 0 1 0 C1.07347656 1.08667969 1.07347656 1.08667969 1.1484375 2.1953125 C1.59289969 8.38694722 1.59289969 8.38694722 3.3125 14.3125 C4 17 4 17 2.1875 20.375 C1.465625 21.24125 0.74375 22.1075 0 23 C-0.33 23 -0.66 23 -1 23 C-1.0272367 20.47909222 -1.04695207 17.95848543 -1.0625 15.4375 C-1.07087891 14.73302734 -1.07925781 14.02855469 -1.08789062 13.30273438 C-1.10882603 8.75975202 -0.74800682 4.48215108 0 0 Z " fill="#F4F5F5" transform="translate(169,116)"/>
<path d="M0 0 C0.309375 0.8971875 0.309375 0.8971875 0.625 1.8125 C2.50926082 4.81018767 4.81132084 5.61361776 8 7 C7.67 8.65 7.34 10.3 7 12 C5.35 11.67 3.7 11.34 2 11 C2.33 9.68 2.66 8.36 3 7 C2.34 6.67 1.68 6.34 1 6 C1 6.66 1 7.32 1 8 C-1.475 7.01 -1.475 7.01 -4 6 C-3.34 5.67 -2.68 5.34 -2 5 C-2 3.68 -2 2.36 -2 1 C-1.34 0.67 -0.68 0.34 0 0 Z " fill="#8C7F3D" transform="translate(111,96)"/>
<path d="M0 0 C2.64 0 5.28 0 8 0 C8.33 1.98 8.66 3.96 9 6 C8.01 6.495 8.01 6.495 7 7 C6.67 6.01 6.34 5.02 6 4 C4.35 4 2.7 4 1 4 C1 4.99 1 5.98 1 7 C0.01 7.495 0.01 7.495 -1 8 C-1 8.66 -1 9.32 -1 10 C-1.66 10 -2.32 10 -3 10 C-3 7.36 -3 4.72 -3 2 C-2.01 2 -1.02 2 0 2 C0 1.34 0 0.68 0 0 Z " fill="#1C1D18" transform="translate(93,117)"/>
<path d="M0 0 C2.31 0 4.62 0 7 0 C7.33 1.65 7.66 3.3 8 5 C5.69 5.66 3.38 6.32 1 7 C1 8.32 1 9.64 1 11 C0.34 11 -0.32 11 -1 11 C-0.67 7.37 -0.34 3.74 0 0 Z " fill="#151515" transform="translate(78,2)"/>
<path d="M0 0 C0.99 0.66 1.98 1.32 3 2 C2.34 4.31 1.68 6.62 1 9 C2.32 9.66 3.64 10.32 5 11 C4.67 12.32 4.34 13.64 4 15 C3.67 14.34 3.34 13.68 3 13 C2.34 12.67 1.68 12.34 1 12 C1.33 11.34 1.66 10.68 2 10 C1.34 10 0.68 10 0 10 C0 10.66 0 11.32 0 12 C-0.99 12 -1.98 12 -3 12 C-3.28846154 4.5 -3.28846154 4.5 -1 1 C-0.67 0.67 -0.34 0.34 0 0 Z " fill="#151615" transform="translate(75,23)"/>
<path d="M0 0 C1.84651134 3.11598788 2.38079379 5.38245897 2 9 C-0.5654594 11.5654594 -2.47686668 11.54046087 -6 12 C-6 8 -6 8 -4.6875 6.3125 C-3 5 -3 5 0 4 C0 2.68 0 1.36 0 0 Z " fill="#AA7873" transform="translate(153,162)"/>
<path d="M0 0 C1.4540625 0.0309375 1.4540625 0.0309375 2.9375 0.0625 C2.586875 1.01125 2.23625 1.96 1.875 2.9375 C0.58723223 5.93310172 0.58723223 5.93310172 1.9375 8.0625 C-0.0425 8.3925 -2.0225 8.7225 -4.0625 9.0625 C-5.04062643 6.01944001 -5.10810527 4.0947553 -4.0625 1.0625 C-3.0625 0.0625 -3.0625 0.0625 0 0 Z " fill="#B76E48" transform="translate(107.0625,82.9375)"/>
<path d="M0 0 C0.66 0.33 1.32 0.66 2 1 C2 1.66 2 2.32 2 3 C4.97 3.495 4.97 3.495 8 4 C8 4.33 8 4.66 8 5 C5.69 5.33 3.38 5.66 1 6 C0.84850702 9.62885324 0.84850702 9.62885324 2 13 C1.34 13 0.68 13 0 13 C0.33 14.65 0.66 16.3 1 18 C-0.32 17.34 -1.64 16.68 -3 16 C-2.34 16 -1.68 16 -1 16 C-1.33 14.68 -1.66 13.36 -2 12 C-3.65 11.67 -5.3 11.34 -7 11 C-6.06414062 10.64808594 -6.06414062 10.64808594 -5.109375 10.2890625 C-2.39744059 8.63176925 -2.11024003 7.3858401 -1.25 4.375 C-1.00765625 3.55773437 -0.7653125 2.74046875 -0.515625 1.8984375 C-0.34546875 1.27195313 -0.1753125 0.64546875 0 0 Z " fill="#211B26" transform="translate(119,128)"/>
<path d="M0 0 C0.99 0.33 1.98 0.66 3 1 C5.05893621 1.22325814 7.12233653 1.40705759 9.1875 1.5625 C10.27417969 1.64628906 11.36085938 1.73007813 12.48046875 1.81640625 C13.72763672 1.90728516 13.72763672 1.90728516 15 2 C15 2.33 15 2.66 15 3 C11.7 3.33 8.4 3.66 5 4 C5 4.66 5 5.32 5 6 C5.99 6.33 6.98 6.66 8 7 C7.01 7 6.02 7 5 7 C5.33 7.99 5.66 8.98 6 10 C5.01 10.33 4.02 10.66 3 11 C0.43383368 7.15075052 0.44902324 4.5650696 0 0 Z " fill="#BE9289" transform="translate(89,10)"/>
<path d="M0 0 C3.875 1.75 3.875 1.75 5 4 C-3.25 4 -11.5 4 -20 4 C-20 3.67 -20 3.34 -20 3 C-19.42967041 2.94465088 -18.85934082 2.88930176 -18.27172852 2.83227539 C-15.70151247 2.58026257 -13.13202369 2.32147272 -10.5625 2.0625 C-9.21575195 1.93198242 -9.21575195 1.93198242 -7.84179688 1.79882812 C-6.98779297 1.71181641 -6.13378906 1.62480469 -5.25390625 1.53515625 C-4.06776733 1.41732788 -4.06776733 1.41732788 -2.85766602 1.29711914 C-0.98896652 1.18448501 -0.98896652 1.18448501 0 0 Z " fill="#222E40" transform="translate(137,221)"/>
<path d="M0 0 C1.65 0 3.3 0 5 0 C5 0.66 5 1.32 5 2 C7.64 2.33 10.28 2.66 13 3 C12.67 3.66 12.34 4.32 12 5 C7.71 5 3.42 5 -1 5 C-0.67 3.35 -0.34 1.7 0 0 Z " fill="#2F3D59" transform="translate(51,220)"/>
<path d="M0 0 C0.66 0.33 1.32 0.66 2 1 C1.67 2.32 1.34 3.64 1 5 C1.66 5 2.32 5 3 5 C3.33 3.35 3.66 1.7 4 0 C4.66 0 5.32 0 6 0 C8.125 4.625 8.125 4.625 7 8 C6.01 8 5.02 8 4 8 C4 7.34 4 6.68 4 6 C1.69 5.67 -0.62 5.34 -3 5 C-3.33 5.66 -3.66 6.32 -4 7 C-4.33 5.68 -4.66 4.36 -5 3 C-2.525 3.495 -2.525 3.495 0 4 C0 2.68 0 1.36 0 0 Z " fill="#1B2A1F" transform="translate(105,109)"/>
<path d="M0 0 C0 0.99 0 1.98 0 3 C-0.66 2.67 -1.32 2.34 -2 2 C-1.34 1.34 -0.68 0.68 0 0 Z M-2 4 C-3.125 6.5 -3.125 6.5 -5 9 C-8.1875 9.3125 -8.1875 9.3125 -11 9 C-11 7.35 -11 5.7 -11 4 C-5.375 2.875 -5.375 2.875 -2 4 Z " fill="#C2948E" transform="translate(115,16)"/>
<path d="M0 0 C0.33 0 0.66 0 1 0 C1 4.29 1 8.58 1 13 C-2.99996286 11.66667905 -3.83782337 9.5042173 -6 6 C-4.35 5.67 -2.7 5.34 -1 5 C-0.67 3.35 -0.34 1.7 0 0 Z " fill="#4C3331" transform="translate(157,175)"/>
<path d="M0 0 C1.32 0 2.64 0 4 0 C3 2 3 2 2 3 C2.66 3.66 3.32 4.32 4 5 C3.34 5 2.68 5 2 5 C2.33 7.31 2.66 9.62 3 12 C1.35 12 -0.3 12 -2 12 C-2.28571429 3.42857143 -2.28571429 3.42857143 0 0 Z " fill="#DBC346" transform="translate(89,92)"/>
<path d="M0 0 C0.99 0 1.98 0 3 0 C3.66 0 4.32 0 5 0 C4.67 1.32 4.34 2.64 4 4 C0.7 4 -2.6 4 -6 4 C-6 3.34 -6 2.68 -6 2 C-6.66 2 -7.32 2 -8 2 C-8 1.34 -8 0.68 -8 0 C-5.13411489 -1.43294255 -3.09628564 -0.56870553 0 0 Z " fill="#141615" transform="translate(96,32)"/>
<path d="M0 0 C0.33 1.98 0.66 3.96 1 6 C0.01 6 -0.98 6 -2 6 C-2.66 7.32 -3.32 8.64 -4 10 C-6 8 -6 8 -6.125 4.375 C-6.08375 3.26125 -6.0425 2.1475 -6 1 C-4 0 -4 0 0 0 Z " fill="#111312" transform="translate(55,176)"/>
<path d="M0 0 C-0.33 0.66 -0.66 1.32 -1 2 C-1.66 1.67 -2.32 1.34 -3 1 C-3 1.66 -3 2.32 -3 3 C-2.34 3 -1.68 3 -1 3 C-1 3.66 -1 4.32 -1 5 C-1.66 5 -2.32 5 -3 5 C-3 6.98 -3 8.96 -3 11 C-2.34 11.33 -1.68 11.66 -1 12 C-2.65 12 -4.3 12 -6 12 C-5.67 9.69 -5.34 7.38 -5 5 C-5.66 5 -6.32 5 -7 5 C-7 4.01 -7 3.02 -7 2 C-4 0 -4 0 0 0 Z " fill="#D71620" transform="translate(93,68)"/>
<path d="M0 0 C3.875 0.875 3.875 0.875 5 2 C5.1875 4.4375 5.1875 4.4375 5 7 C4.34 7.66 3.68 8.32 3 9 C-0.125 8.625 -0.125 8.625 -3 8 C-3 6.02 -3 4.04 -3 2 C-2.34 2 -1.68 2 -1 2 C-0.814375 3.2065625 -0.814375 3.2065625 -0.625 4.4375 C-0.41875 5.283125 -0.2125 6.12875 0 7 C0.66 7.33 1.32 7.66 2 8 C2 5.69 2 3.38 2 1 C1.34 0.67 0.68 0.34 0 0 Z " fill="#0B4499" transform="translate(123,120)"/>
<path d="M0 0 C1.8871875 0.0309375 1.8871875 0.0309375 3.8125 0.0625 C3.8125 0.7225 3.8125 1.3825 3.8125 2.0625 C2.1625 2.0625 0.5125 2.0625 -1.1875 2.0625 C-0.1975 2.7225 0.7925 3.3825 1.8125 4.0625 C1.4825 5.7125 1.1525 7.3625 0.8125 9.0625 C-1.68787734 6.88825883 -2.62378586 5.33204202 -3.1875 2.0625 C-4.5075 1.7325 -5.8275 1.4025 -7.1875 1.0625 C-4.43671116 0.14557039 -2.82801087 -0.04636083 0 0 Z " fill="#B08D85" transform="translate(88.1875,-0.0625)"/>
<path d="M0 0 C0.99 0.33 1.98 0.66 3 1 C1.58192622 5.47238653 -0.11304374 9.71146306 -2 14 C-5 10.375 -5 10.375 -5 7 C-4.0409375 6.6596875 -4.0409375 6.6596875 -3.0625 6.3125 C-0.72806339 5.14749104 -0.72806339 5.14749104 -0.25 2.375 C-0.1675 1.59125 -0.085 0.8075 0 0 Z " fill="#101010" transform="translate(205,129)"/>
<path d="M0 0 C2.31 0.66 4.62 1.32 7 2 C6.67 2.66 6.34 3.32 6 4 C4.35 3.67 2.7 3.34 1 3 C1.33 3.99 1.66 4.98 2 6 C1.01 6 0.02 6 -1 6 C-2.33981486 6.3062434 -3.67511887 6.63451555 -5 7 C-4.67 5.68 -4.34 4.36 -4 3 C-4.99 2.67 -5.98 2.34 -7 2 C-4.69 2.33 -2.38 2.66 0 3 C0 2.01 0 1.02 0 0 Z " fill="#0D4395" transform="translate(111,126)"/>
<path d="M0 0 C0.66 0 1.32 0 2 0 C2 1.32 2 2.64 2 4 C2.66 4 3.32 4 4 4 C4.33 2.68 4.66 1.36 5 0 C5.7658028 2.77603517 6 5.10673188 6 8 C4.35 8 2.7 8 1 8 C1 8.99 1 9.98 1 11 C0.34 11 -0.32 11 -1 11 C-0.67 7.37 -0.34 3.74 0 0 Z " fill="#E51A20" transform="translate(103,72)"/>
<path d="M0 0 C2 2 2 2 2 5 C3.27760233 8.24314437 3.96938234 8.97958823 7 11 C5.02 11.99 5.02 11.99 3 13 C2.01941648 11.54261898 1.04057868 10.08406325 0.0625 8.625 C-0.48277344 7.81289063 -1.02804688 7.00078125 -1.58984375 6.1640625 C-3 4 -3 4 -4 2 C-2.68 1.34 -1.36 0.68 0 0 Z " fill="#B8968D" transform="translate(107,32)"/>
<path d="M0 0 C0 0.66 0 1.32 0 2 C2.64 2 5.28 2 8 2 C8 2.66 8 3.32 8 4 C3.38 4 -1.24 4 -6 4 C-6 3.01 -6 2.02 -6 1 C-3 0 -3 0 0 0 Z " fill="#121518" transform="translate(72,219)"/>
<path d="M0 0 C1.32 0.66 2.64 1.32 4 2 C4 3.32 4 4.64 4 6 C3.34 6 2.68 6 2 6 C2 7.98 2 9.96 2 12 C2.66 12.33 3.32 12.66 4 13 C2.35 13 0.7 13 -1 13 C-1.0272415 11.58344207 -1.04650467 10.16672955 -1.0625 8.75 C-1.07410156 7.96109375 -1.08570312 7.1721875 -1.09765625 6.359375 C-1.00385306 4.09308998 -0.63241063 2.1711105 0 0 Z " fill="#593B79" transform="translate(87,128)"/>
<path d="M0 0 C1.65 0.33 3.3 0.66 5 1 C3.68 1.33 2.36 1.66 1 2 C1 2.99 1 3.98 1 5 C2.32 5.33 3.64 5.66 5 6 C0.33333333 6 -4.33333333 6 -9 6 C-9.33 5.01 -9.66 4.02 -10 3 C-9.34 3 -8.68 3 -8 3 C-8 3.66 -8 4.32 -8 5 C-6.68 5 -5.36 5 -4 5 C-3.67 3.68 -3.34 2.36 -3 1 C-2.01 1.33 -1.02 1.66 0 2 C0 1.34 0 0.68 0 0 Z " fill="#E1CD4A" transform="translate(112,102)"/>
<path d="M0 0 C3 1.6875 3 1.6875 6 4 C6.375 6.75 6.375 6.75 6 9 C4.68 9.33 3.36 9.66 2 10 C2.33 8.68 2.66 7.36 3 6 C2.01 5.34 1.02 4.68 0 4 C0 2.68 0 1.36 0 0 Z M-3 3 C-2.01 3.33 -1.02 3.66 0 4 C-0.66 5.32 -1.32 6.64 -2 8 C-2.33 6.35 -2.66 4.7 -3 3 Z " fill="#232522" transform="translate(172,46)"/>
<path d="M0 0 C1.65 0 3.3 0 5 0 C5.33 0.99 5.66 1.98 6 3 C6.66 3.66 7.32 4.32 8 5 C7.01 5.66 6.02 6.32 5 7 C4.01 6.67 3.02 6.34 2 6 C1.67 6.66 1.34 7.32 1 8 C-0.35439668 5.29120665 -0.06501451 2.99066732 0 0 Z " fill="#282723" transform="translate(56,154)"/>
<path d="M0 0 C0.99 0.33 1.98 0.66 3 1 C3.76173392 5.3164922 4.16063604 8.74433453 3 13 C2.34 13 1.68 13 1 13 C1.020625 12.195625 1.04125 11.39125 1.0625 10.5625 C1.29633621 8.06645115 1.29633621 8.06645115 0 7 C-0.04092937 4.66702567 -0.04241723 2.33294775 0 0 Z " fill="#121010" transform="translate(159,183)"/>
<path d="M0 0 C2.0625 0.4375 2.0625 0.4375 4 1 C4 1.66 4 2.32 4 3 C3.34 3 2.68 3 2 3 C2 4.98 2 6.96 2 9 C2.66 9.33 3.32 9.66 4 10 C2.35 10 0.7 10 -1 10 C-1.02689216 8.52093108 -1.04634621 7.04172517 -1.0625 5.5625 C-1.07410156 4.73878906 -1.08570313 3.91507812 -1.09765625 3.06640625 C-1 1 -1 1 0 0 Z " fill="#0F408F" transform="translate(131,119)"/>
<path d="M0 0 C1.49080078 0.02707031 1.49080078 0.02707031 3.01171875 0.0546875 C3.77097656 0.07789063 4.53023437 0.10109375 5.3125 0.125 C5.3125 1.115 5.3125 2.105 5.3125 3.125 C2.8125 4.8125 2.8125 4.8125 0.3125 6.125 C0.6425 4.475 0.9725 2.825 1.3125 1.125 C0.3225 1.62 0.3225 1.62 -0.6875 2.125 C-3.3598621 2.25915472 -6.01000488 2.16818541 -8.6875 2.125 C-5.26655758 -0.15562828 -4.00562778 -0.09425007 0 0 Z " fill="#815551" transform="translate(144.6875,165.875)"/>
<path d="M0 0 C1.12377697 3.30435084 0.89554742 5.0506862 -0.4375 8.25 C-0.72496094 8.95640625 -1.01242188 9.6628125 -1.30859375 10.390625 C-1.53675781 10.92171875 -1.76492187 11.4528125 -2 12 C-4.50298434 9.06171403 -5.46930939 6.82097239 -6 3 C-4.68 3 -3.36 3 -2 3 C-1.34 2.01 -0.68 1.02 0 0 Z " fill="#0D0D0D" transform="translate(199,148)"/>
<path d="M0 0 C1.32 0.33 2.64 0.66 4 1 C4.33 2.65 4.66 4.3 5 6 C2.69 6.66 0.38 7.32 -2 8 C-2 5 -2 5 0 3 C0 2.01 0 1.02 0 0 Z " fill="#2C2C28" transform="translate(115,40)"/>
<path d="M0 0 C0.66 0 1.32 0 2 0 C2 0.66 2 1.32 2 2 C2.66 2 3.32 2 4 2 C4 2.66 4 3.32 4 4 C3.34 4 2.68 4 2 4 C2 5.65 2 7.3 2 9 C2.66 9 3.32 9 4 9 C4 9.66 4 10.32 4 11 C2.68 11 1.36 11 0 11 C0 8.36 0 5.72 0 3 C-0.66 2.67 -1.32 2.34 -2 2 C-1.34 2 -0.68 2 0 2 C0 1.34 0 0.68 0 0 Z " fill="#0D6F38" transform="translate(131,106)"/>
<path d="M0 0 C2 2 2 2 2.125 5.625 C2.08375 6.73875 2.0425 7.8525 2 9 C1.01 9 0.02 9 -1 9 C-1 7.68 -1 6.36 -1 5 C-1.99 4.67 -2.98 4.34 -4 4 C-3.67 3.01 -3.34 2.02 -3 1 C-2.01 0.67 -1.02 0.34 0 0 Z " fill="#292D28" transform="translate(101,103)"/>
<path d="M0 0 C0.99 0 1.98 0 3 0 C2.979375 0.721875 2.95875 1.44375 2.9375 2.1875 C2.99820559 4.91925138 3.39258535 7.34256091 4 10 C1.5 8.875 1.5 8.875 -1 7 C-1.375 3.875 -1.375 3.875 -1 1 C-0.67 0.67 -0.34 0.34 0 0 Z " fill="#151515" transform="translate(36,165)"/>
<path d="M0 0 C0.66 0.66 1.32 1.32 2 2 C1.96712417 4.72869407 1.43602229 7.2966618 1 10 C0.34 10 -0.32 10 -1 10 C-1 9.34 -1 8.68 -1 8 C-2.65 8 -4.3 8 -6 8 C-5.01 7.34 -4.02 6.68 -3 6 C-1.93753473 4.03247172 -0.92862192 2.03412421 0 0 Z " fill="#192126" transform="translate(110,119)"/>
<path d="M0 0 C0.33 0.66 0.66 1.32 1 2 C1.66 2.33 2.32 2.66 3 3 C2.67 4.98 2.34 6.96 2 9 C2.66 9.33 3.32 9.66 4 10 C2.35 10 0.7 10 -1 10 C-1.9765625 3.9453125 -1.9765625 3.9453125 -2 2 C-1.34 1.34 -0.68 0.68 0 0 Z " fill="#DECA47" transform="translate(132,94)"/>
<path d="M0 0 C1.62463842 -0.05395478 3.24978541 -0.09277195 4.875 -0.125 C5.77992187 -0.14820313 6.68484375 -0.17140625 7.6171875 -0.1953125 C10 0 10 0 12 2 C11 3 11 3 8.71484375 3.09765625 C7.34005859 3.08025391 7.34005859 3.08025391 5.9375 3.0625 C5.01839844 3.05347656 4.09929687 3.04445313 3.15234375 3.03515625 C2.44207031 3.02355469 1.73179688 3.01195312 1 3 C0.67 2.01 0.34 1.02 0 0 Z " fill="#DBAB9F" transform="translate(95,8)"/>
<path d="M0 0 C0.78375 0.04125 1.5675 0.0825 2.375 0.125 C2.375 2.435 2.375 4.745 2.375 7.125 C2.045 7.125 1.715 7.125 1.375 7.125 C1.375 5.475 1.375 3.825 1.375 2.125 C0.81296875 2.45242188 0.2509375 2.77984375 -0.328125 3.1171875 C-2.89359964 4.24285494 -4.59342277 4.3318111 -7.375 4.25 C-8.17421875 4.23195313 -8.9734375 4.21390625 -9.796875 4.1953125 C-10.40015625 4.17210937 -11.0034375 4.14890625 -11.625 4.125 C-10.965 3.465 -10.305 2.805 -9.625 2.125 C-7.95833333 2.125 -6.29166667 2.125 -4.625 2.125 C-2.625 0.125 -2.625 0.125 0 0 Z " fill="#131313" transform="translate(151.625,0.875)"/>
<path d="M0 0 C1.98 0 3.96 0 6 0 C6 1.32 6 2.64 6 4 C5.34 4.66 4.68 5.32 4 6 C2.68 6 1.36 6 0 6 C0.185625 5.38125 0.37125 4.7625 0.5625 4.125 C1.23686176 1.95839822 1.23686176 1.95839822 0 0 Z " fill="#0D0D0D" transform="translate(184,168)"/>
<path d="M0 0 C4.455 0.99 4.455 0.99 9 2 C9 2.66 9 3.32 9 4 C8.34 4 7.68 4 7 4 C7.33 5.32 7.66 6.64 8 8 C7.62875 7.525625 7.2575 7.05125 6.875 6.5625 C4.37353038 4.47794198 2.18406582 4.35378509 -1 4 C-0.67 2.68 -0.34 1.36 0 0 Z " fill="#181816" transform="translate(122,104)"/>
<path d="M0 0 C0.99 0 1.98 0 3 0 C3 3.63 3 7.26 3 11 C2.67 11 2.34 11 2 11 C2 9.02 2 7.04 2 5 C1.34 5 0.68 5 0 5 C-0.33 5.99 -0.66 6.98 -1 8 C-1.625 5.125 -1.625 5.125 -2 2 C-1.34 1.34 -0.68 0.68 0 0 Z " fill="#A78077" transform="translate(125,0)"/>
<path d="M0 0 C0.33 0 0.66 0 1 0 C1.125 5.75 1.125 5.75 0 8 C-2.5625 8.625 -2.5625 8.625 -5 9 C-5.33 8.34 -5.66 7.68 -6 7 C-4 4 -4 4 -1 3 C-0.67 2.01 -0.34 1.02 0 0 Z " fill="#764D48" transform="translate(156,172)"/>
<path d="M0 0 C0.66 0.33 1.32 0.66 2 1 C2 3.97 2 6.94 2 10 C1.34 10 0.68 10 0 10 C0 9.34 0 8.68 0 8 C-1.65 8.33 -3.3 8.66 -5 9 C-5 8.34 -5 7.68 -5 7 C-3.68 7 -2.36 7 -1 7 C-0.67 4.69 -0.34 2.38 0 0 Z " fill="#211D2A" transform="translate(109,131)"/>
<path d="M0 0 C0.66 0.66 1.32 1.32 2 2 C1.34 2 0.68 2 0 2 C-0.33 3.65 -0.66 5.3 -1 7 C-1.66 7 -2.32 7 -3 7 C-3.33 5.35 -3.66 3.7 -4 2 C-4 3.32 -4 4.64 -4 6 C-4.66 6 -5.32 6 -6 6 C-6 4.35 -6 2.7 -6 1 C-3.125 0.375 -3.125 0.375 0 0 Z " fill="#116A34" transform="translate(109,107)"/>
<path d="M0 0 C2.97 0.495 2.97 0.495 6 1 C5.67 2.65 5.34 4.3 5 6 C3.68 6 2.36 6 1 6 C0.67 4.02 0.34 2.04 0 0 Z " fill="#948536" transform="translate(103,101)"/>
<path d="M0 0 C0.99 0.33 1.98 0.66 3 1 C3 2.32 3 3.64 3 5 C0.525 4.01 0.525 4.01 -2 3 C-2 3.66 -2 4.32 -2 5 C-3.32 5 -4.64 5 -6 5 C-6 3.68 -6 2.36 -6 1 C-3.03 1.495 -3.03 1.495 0 2 C0 1.34 0 0.68 0 0 Z " fill="#1E2A20" transform="translate(128,66)"/>
<path d="M0 0 C0.66 1.32 1.32 2.64 2 4 C-1.63423209 6.32590854 -4.77088331 6.16265833 -9 6 C-7.68 5.34 -6.36 4.68 -5 4 C-5 3.34 -5 2.68 -5 2 C-2 0 -2 0 0 0 Z " fill="#262727" transform="translate(106,44)"/>
<path d="M0 0 C-1.98 0.99 -1.98 0.99 -4 2 C-3.67 2.66 -3.34 3.32 -3 4 C-5.90600261 5.25664978 -7.79604584 6 -11 6 C-11 5.01 -11 4.02 -11 3 C-9.73581754 2.30034557 -8.46334598 1.61565237 -7.1875 0.9375 C-6.47980469 0.55464844 -5.77210938 0.17179687 -5.04296875 -0.22265625 C-3 -1 -3 -1 0 0 Z " fill="#141615" transform="translate(139,38)"/>
<path d="M0 0 C3.96 0 7.92 0 12 0 C10.02 0.99 10.02 0.99 8 2 C7.01 2.66 6.02 3.32 5 4 C3.68 4 2.36 4 1 4 C0.67 2.68 0.34 1.36 0 0 Z " fill="#272727" transform="translate(141,0)"/>
<path d="M0 0 C2.0625 0.4375 2.0625 0.4375 4 1 C4 1.66 4 2.32 4 3 C3.34 3 2.68 3 2 3 C2 4.98 2 6.96 2 9 C2.66 9.33 3.32 9.66 4 10 C2.68 10 1.36 10 0 10 C-0.19412181 8.52168779 -0.38012131 7.04230684 -0.5625 5.5625 C-0.66691406 4.73878906 -0.77132812 3.91507813 -0.87890625 3.06640625 C-0.91886719 2.38449219 -0.95882812 1.70257813 -1 1 C-0.67 0.67 -0.34 0.34 0 0 Z " fill="#5D3977" transform="translate(130,131)"/>
<path d="M0 0 C1.98 0 3.96 0 6 0 C6.33 1.32 6.66 2.64 7 4 C6.01 4 5.02 4 4 4 C3.67 4.99 3.34 5.98 3 7 C2.34 7 1.68 7 1 7 C0.67 4.69 0.34 2.38 0 0 Z " fill="#765E37" transform="translate(113,93)"/>
<path d="M0 0 C2.64 0.33 5.28 0.66 8 1 C8 1.66 8 2.32 8 3 C6 5 6 5 2.375 5.125 C1.26125 5.08375 0.1475 5.0425 -1 5 C-0.67 3.35 -0.34 1.7 0 0 Z " fill="#28241F" transform="translate(105,66)"/>
<path d="M0 0 C0.99 0 1.98 0 3 0 C2.67 0.99 2.34 1.98 2 3 C-2.43795241 4.4053516 -6.32130569 5.29241839 -11 5 C-10.67 4.34 -10.34 3.68 -10 3 C-7.96875 2.40234375 -7.96875 2.40234375 -5.5 1.9375 C-2.46226779 1.54135157 -2.46226779 1.54135157 0 0 Z " fill="#0D0D0D" transform="translate(195,122)"/>
<path d="M0 0 C0.66 0.33 1.32 0.66 2 1 C1.67 2.98 1.34 4.96 1 7 C2.65 6.34 4.3 5.68 6 5 C6 5.99 6 6.98 6 8 C3.125 8.125 3.125 8.125 0 8 C-0.66 7.34 -1.32 6.68 -2 6 C-1.44444444 1.44444444 -1.44444444 1.44444444 0 0 Z " fill="#E1C749" transform="translate(122,96)"/>
<path d="M0 0 C0.66 0 1.32 0 2 0 C2 0.66 2 1.32 2 2 C2.66 2.33 3.32 2.66 4 3 C3.34 3 2.68 3 2 3 C2 4.98 2 6.96 2 9 C2.66 9.33 3.32 9.66 4 10 C2.68 10 1.36 10 0 10 C0 7.69 0 5.38 0 3 C-0.66 2.67 -1.32 2.34 -2 2 C-1.34 2 -0.68 2 0 2 C0 1.34 0 0.68 0 0 Z " fill="#E9905A" transform="translate(131,82)"/>
<path d="M0 0 C0.66 0 1.32 0 2 0 C2 0.66 2 1.32 2 2 C2.99 2 3.98 2 5 2 C6 5 6 5 5 8 C4.34 8 3.68 8 3 8 C0.95830515 5.09451118 0 3.59857954 0 0 Z " fill="#775251" transform="translate(56,179)"/>
<path d="M0 0 C-0.969375 0.5775 -1.93875 1.155 -2.9375 1.75 C-6.09469292 3.64792862 -6.09469292 3.64792862 -6.875 6.25 C-6.91625 6.8275 -6.9575 7.405 -7 8 C-7.66 7.67 -8.32 7.34 -9 7 C-8.8125 4.6875 -8.8125 4.6875 -8 2 C-3.84375 -1.28125 -3.84375 -1.28125 0 0 Z " fill="#242424" transform="translate(30,118)"/>
<path d="M0 0 C1.134375 0.020625 2.26875 0.04125 3.4375 0.0625 C2.4475 0.5575 2.4475 0.5575 1.4375 1.0625 C1.4375 2.3825 1.4375 3.7025 1.4375 5.0625 C0.7775 5.0625 0.1175 5.0625 -0.5625 5.0625 C-0.5625 4.0725 -0.5625 3.0825 -0.5625 2.0625 C-1.2225 2.0625 -1.8825 2.0625 -2.5625 2.0625 C-2.8925 3.3825 -3.2225 4.7025 -3.5625 6.0625 C-3.94468767 4.40635343 -4.27645102 2.73792976 -4.5625 1.0625 C-3.5625 0.0625 -3.5625 0.0625 0 0 Z " fill="#084A9A" transform="translate(115.5625,119.9375)"/>
<path d="M0 0 C1.32 0 2.64 0 4 0 C4 1.65 4 3.3 4 5 C2.68 5 1.36 5 0 5 C-0.5625 3.0625 -0.5625 3.0625 -1 1 C-0.67 0.67 -0.34 0.34 0 0 Z " fill="#A79842" transform="translate(94,99)"/>
<path d="M0 0 C2.79872437 2.52788007 4.45773019 4.20411134 5 8 C4.01 7.67 3.02 7.34 2 7 C2 6.34 2 5.68 2 5 C0.68 5.33 -0.64 5.66 -2 6 C-2.33 5.01 -2.66 4.02 -3 3 C-2.01 3 -1.02 3 0 3 C0 2.01 0 1.02 0 0 Z " fill="#131313" transform="translate(196,92)"/>
<path d="M0 0 C1.98 0 3.96 0 6 0 C5.75 1.875 5.75 1.875 5 4 C2.9375 5.25 2.9375 5.25 1 6 C0.67 4.02 0.34 2.04 0 0 Z " fill="#2D2C28" transform="translate(82,93)"/>
<path d="M0 0 C4.875 4.75 4.875 4.75 6 7 C5.34 7 4.68 7 4 7 C3.67 7.66 3.34 8.32 3 9 C2.01 8.01 1.02 7.02 0 6 C0.33 5.67 0.66 5.34 1 5 C0.34 4.67 -0.32 4.34 -1 4 C-0.67 2.68 -0.34 1.36 0 0 Z " fill="#2D2823" transform="translate(101,32)"/>
<path d="M0 0 C1.98 0 3.96 0 6 0 C6 2.64 6 5.28 6 8 C5.34 8 4.68 8 4 8 C3.67 6.02 3.34 4.04 3 2 C2.01 2 1.02 2 0 2 C0 1.34 0 0.68 0 0 Z " fill="#0D783D" transform="translate(94,108)"/>
<path d="M0 0 C0.66 0 1.32 0 2 0 C3.625 3.25 3.625 3.25 5 7 C4.1875 9.4375 4.1875 9.4375 3 11 C2.49384702 9.73160474 1.99530901 8.46016898 1.5 7.1875 C1.2215625 6.47980469 0.943125 5.77210937 0.65625 5.04296875 C0 3 0 3 0 0 Z " fill="#141521" transform="translate(99,93)"/>
<path d="M0 0 C1.98 0.66 3.96 1.32 6 2 C5.01 2.495 5.01 2.495 4 3 C3.67 3.99 3.34 4.98 3 6 C1.68 5.67 0.36 5.34 -1 5 C-0.67 4.67 -0.34 4.34 0 4 C-0.66 3.34 -1.32 2.68 -2 2 C-1.34 2 -0.68 2 0 2 C0 1.34 0 0.68 0 0 Z " fill="#2A2C29" transform="translate(164,42)"/>
<path d="M0 0 C0 1.98 0 3.96 0 6 C1.32 6.66 2.64 7.32 4 8 C2.02 8 0.04 8 -2 8 C-2.66 6.35 -3.32 4.7 -4 3 C-1.125 0 -1.125 0 0 0 Z " fill="#2D2334" transform="translate(87,134)"/>
<path d="M0 0 C1.65 0.33 3.3 0.66 5 1 C5 3.31 5 5.62 5 8 C4.34 8 3.68 8 3 8 C3 6.02 3 4.04 3 2 C1.68 2.33 0.36 2.66 -1 3 C-0.67 2.01 -0.34 1.02 0 0 Z " fill="#603985" transform="translate(94,132)"/>
<path d="M0 0 C1.134375 0.020625 2.26875 0.04125 3.4375 0.0625 C3.1075 1.0525 2.7775 2.0425 2.4375 3.0625 C0.4575 3.3925 -1.5225 3.7225 -3.5625 4.0625 C-3.8925 3.0725 -4.2225 2.0825 -4.5625 1.0625 C-3.5625 0.0625 -3.5625 0.0625 0 0 Z " fill="#151515" transform="translate(191.5625,120.9375)"/>
<path d="M0 0 C1.65 0 3.3 0 5 0 C3.75 2.9375 3.75 2.9375 2 6 C-0.1875 6.875 -0.1875 6.875 -2 7 C-2 5.02 -2 3.04 -2 1 C-1.67 2.32 -1.34 3.64 -1 5 C-0.34 5 0.32 5 1 5 C0.67 3.35 0.34 1.7 0 0 Z " fill="#08459D" transform="translate(105,120)"/>
<path d="M0 0 C0.66 0.33 1.32 0.66 2 1 C1.67 2.32 1.34 3.64 1 5 C1.99 4.67 2.98 4.34 4 4 C4 4.66 4 5.32 4 6 C1.69 5.67 -0.62 5.34 -3 5 C-3.33 5.66 -3.66 6.32 -4 7 C-4.33 5.68 -4.66 4.36 -5 3 C-2.525 3.495 -2.525 3.495 0 4 C0 2.68 0 1.36 0 0 Z " fill="#112E16" transform="translate(105,109)"/>
<path d="M0 0 C0.66 0 1.32 0 2 0 C4 3 4 3 3.625 5.1875 C3.41875 5.785625 3.2125 6.38375 3 7 C1 6.33333333 -1 5.66666667 -3 5 C-2.67 4.34 -2.34 3.68 -2 3 C-1.34 3 -0.68 3 0 3 C0 2.01 0 1.02 0 0 Z " fill="#141414" transform="translate(202,108)"/>
<path d="M0 0 C0 2.64 0 5.28 0 8 C-2.475 7.01 -2.475 7.01 -5 6 C-4.34 5.67 -3.68 5.34 -3 5 C-3 3.68 -3 2.36 -3 1 C-1 0 -1 0 0 0 Z " fill="#272520" transform="translate(112,96)"/>
<path d="M0 0 C1.65 0 3.3 0 5 0 C5.33 0.99 5.66 1.98 6 3 C5.01 3 4.02 3 3 3 C3 4.32 3 5.64 3 7 C2.34 7 1.68 7 1 7 C0.67 4.69 0.34 2.38 0 0 Z " fill="#6D5231" transform="translate(104,93)"/>
<path d="M0 0 C1.65 0 3.3 0 5 0 C5.33 0.99 5.66 1.98 6 3 C4.35 3.33 2.7 3.66 1 4 C1 5.32 1 6.64 1 8 C0.34 8 -0.32 8 -1 8 C-0.67 5.36 -0.34 2.72 0 0 Z " fill="#09090A" transform="translate(78,5)"/>
<path d="M0 0 C0.33 0 0.66 0 1 0 C1.33 3.96 1.66 7.92 2 12 C1.01 12 0.02 12 -1 12 C-0.67 8.04 -0.34 4.08 0 0 Z " fill="#2E333F" transform="translate(163,213)"/>
<path d="M0 0 C2 3 2 3 2 5 C-0.97 5 -3.94 5 -7 5 C-6.67 4.01 -6.34 3.02 -6 2 C-5.34 2 -4.68 2 -4 2 C-4 2.66 -4 3.32 -4 4 C-2.68 2.68 -1.36 1.36 0 0 Z " fill="#080808" transform="translate(174,176)"/>
<path d="M0 0 C0 3.10551666 -0.5393715 4.35261084 -2 7 C-2.99 6.67 -3.98 6.34 -5 6 C-5 4.68 -5 3.36 -5 2 C-3.35 1.34 -1.7 0.68 0 0 Z " fill="#F0F0F0" transform="translate(183,176)"/>
<path d="M0 0 C-0.33 0.99 -0.66 1.98 -1 3 C-3.64 3 -6.28 3 -9 3 C-6.38997624 -0.48003168 -4.1689578 -0.27793052 0 0 Z " fill="#151412" transform="translate(144,169)"/>
<path d="M0 0 C1.65 0.33 3.3 0.66 5 1 C4.67 1.99 4.34 2.98 4 4 C3.01 4 2.02 4 1 4 C-0.70532323 5.94009522 -0.70532323 5.94009522 -2 8 C-1.125 2.25 -1.125 2.25 0 0 Z " fill="#CDA19D" transform="translate(59,164)"/>
<path d="M0 0 C0.99 0.495 0.99 0.495 2 1 C1.01 1.495 1.01 1.495 0 2 C0 1.34 0 0.68 0 0 Z M-9 1 C-5.05272412 0.82057837 -2.4019487 0.90649311 1 3 C1 3.33 1 3.66 1 4 C-5.625 4.125 -5.625 4.125 -9 3 C-9 2.34 -9 1.68 -9 1 Z " fill="#BC8B87" transform="translate(82,159)"/>
<path d="M0 0 C0 1.65 0 3.3 0 5 C-3 6 -3 6 -6 5 C-6 4.01 -6 3.02 -6 2 C-2.25 0 -2.25 0 0 0 Z " fill="#851E1D" transform="translate(110,78)"/>
<path d="M0 0 C2.125 0.9375 2.125 0.9375 4 2 C3.6875 3.9375 3.6875 3.9375 3 6 C2.01 6.33 1.02 6.66 0 7 C-0.66 6.34 -1.32 5.68 -2 5 C-1.34 5 -0.68 5 0 5 C0 4.01 0 3.02 0 2 C-0.66 1.67 -1.32 1.34 -2 1 C-1.34 0.67 -0.68 0.34 0 0 Z " fill="#2E2E2E" transform="translate(59,41)"/>
<path d="M0 0 C0.33 0 0.66 0 1 0 C1.38909985 1.45463481 1.76088029 2.91391207 2.125 4.375 C2.33382812 5.18710938 2.54265625 5.99921875 2.7578125 6.8359375 C2.83773437 7.55007812 2.91765625 8.26421875 3 9 C2.34 9.66 1.68 10.32 1 11 C0.34 10.34 -0.32 9.68 -1 9 C-0.9765625 6.8359375 -0.9765625 6.8359375 -0.625 4.375 C-0.51414063 3.55773437 -0.40328125 2.74046875 -0.2890625 1.8984375 C-0.19367188 1.27195313 -0.09828125 0.64546875 0 0 Z " fill="#0B0B0E" transform="translate(161,204)"/>
<path d="M0 0 C0.66 0.66 1.32 1.32 2 2 C1.625 4.125 1.625 4.125 1 6 C-0.32 6.33 -1.64 6.66 -3 7 C-2.67 6.01 -2.34 5.02 -2 4 C-2.66 4 -3.32 4 -4 4 C-4 3.34 -4 2.68 -4 2 C-2.68 2.33 -1.36 2.66 0 3 C0 2.01 0 1.02 0 0 Z " fill="#121310" transform="translate(62,185)"/>
<path d="M0 0 C0.66 0.66 1.32 1.32 2 2 C1.67 2.99 1.34 3.98 1 5 C-1.0625 5.6875 -1.0625 5.6875 -3 6 C-3 4.68 -3 3.36 -3 2 C-2.01 1.34 -1.02 0.68 0 0 Z " fill="#C18682" transform="translate(150,168)"/>
<path d="M0 0 C0 0.99 0 1.98 0 3 C-1.98 3 -3.96 3 -6 3 C-6 3.66 -6 4.32 -6 5 C-6.66 5 -7.32 5 -8 5 C-5.96115496 0.48541456 -5.19128917 0 0 0 Z " fill="#563971" transform="translate(109,139)"/>
<path d="M0 0 C0.66 0 1.32 0 2 0 C2 1.65 2 3.3 2 5 C-0.64 4.67 -3.28 4.34 -6 4 C-6 3.67 -6 3.34 -6 3 C-4.35 3 -2.7 3 -1 3 C-0.67 2.01 -0.34 1.02 0 0 Z " fill="#272825" transform="translate(129,101)"/>
<path d="M0 0 C1.98 0 3.96 0 6 0 C5 3 5 3 3 5 C2.01 5 1.02 5 0 5 C0 3.35 0 1.7 0 0 Z " fill="#AA6148" transform="translate(113,83)"/>
<path d="M0 0 C2.0625 0.1875 2.0625 0.1875 4 1 C4.33 1.99 4.66 2.98 5 4 C3.02 4.99 3.02 4.99 1 6 C0.67 5.01 0.34 4.02 0 3 C-0.66 2.67 -1.32 2.34 -2 2 C-1.34 1.34 -0.68 0.68 0 0 Z " fill="#202221" transform="translate(179,58)"/>
<path d="M0 0 C1.98 0.495 1.98 0.495 4 1 C3.67 1.33 3.34 1.66 3 2 C2.63239269 4.32817964 2.29758419 6.6618385 2 9 C-0.37783838 6.62216162 -0.59009208 5.27926335 -1 2 C-0.67 1.34 -0.34 0.68 0 0 Z " fill="#BA8783" transform="translate(68,161)"/>
<path d="M0 0 C0.66 0 1.32 0 2 0 C2 0.66 2 1.32 2 2 C3.65 1.67 5.3 1.34 7 1 C6.67 2.32 6.34 3.64 6 5 C4.35 4.67 2.7 4.34 1 4 C0.67 2.68 0.34 1.36 0 0 Z " fill="#252523" transform="translate(76,154)"/>
<path d="M0 0 C0.33 0 0.66 0 1 0 C1.12375 0.94875 1.2475 1.8975 1.375 2.875 C1.71687177 6.08667191 1.71687177 6.08667191 4 8 C3.625 10.125 3.625 10.125 3 12 C0.89366282 10.29171079 0.06198392 9.47851584 -0.29296875 6.73828125 C-0.25816406 5.93777344 -0.22335938 5.13726562 -0.1875 4.3125 C-0.16042969 3.50425781 -0.13335937 2.69601563 -0.10546875 1.86328125 C-0.07066406 1.24839844 -0.03585938 0.63351563 0 0 Z " fill="#3A3B3A" transform="translate(167,131)"/>
<path d="M0 0 C0.66 0 1.32 0 2 0 C2 2.64 2 5.28 2 8 C1.01 7.67 0.02 7.34 -1 7 C-0.67 4.69 -0.34 2.38 0 0 Z " fill="#084397" transform="translate(98,121)"/>
<path d="M0 0 C0.33 0 0.66 0 1 0 C2.28571429 8.57142857 2.28571429 8.57142857 1 12 C0.34 12 -0.32 12 -1 12 C-0.67 8.04 -0.34 4.08 0 0 Z " fill="#D3D3D3" transform="translate(169,116)"/>
<path d="M0 0 C1.98 0 3.96 0 6 0 C6.33 0.99 6.66 1.98 7 3 C4.69 3 2.38 3 0 3 C0 2.01 0 1.02 0 0 Z " fill="#134E26" transform="translate(111,117)"/>
<path d="M0 0 C2.31 0 4.62 0 7 0 C7 0.66 7 1.32 7 2 C6.360625 2.103125 5.72125 2.20625 5.0625 2.3125 C4.381875 2.539375 3.70125 2.76625 3 3 C2.67 3.99 2.34 4.98 2 6 C1.34 6 0.68 6 0 6 C0 4.02 0 2.04 0 0 Z " fill="#180F1B" transform="translate(91,97)"/>
<path d="M0 0 C0.99 0.33 1.98 0.66 3 1 C3 2.98 3 4.96 3 7 C2.01 7 1.02 7 0 7 C0 4.69 0 2.38 0 0 Z " fill="#41342C" transform="translate(128,84)"/>
<path d="M0 0 C1.98 0 3.96 0 6 0 C6 1.65 6 3.3 6 5 C5.01 5.33 4.02 5.66 3 6 C3.33 4.68 3.66 3.36 4 2 C2.68 2 1.36 2 0 2 C0 1.34 0 0.68 0 0 Z " fill="#D21A1D" transform="translate(113,78)"/>
<path d="M0 0 C0.66 0 1.32 0 2 0 C2.93065133 2.60582371 3.14917407 3.64198224 2.0625 6.25 C1.5365625 7.11625 1.5365625 7.11625 1 8 C-0.32 7.67 -1.64 7.34 -3 7 C-2.01 7 -1.02 7 0 7 C0 4.69 0 2.38 0 0 Z " fill="#E3181F" transform="translate(126,72)"/>
<path d="M0 0 C0.33 0 0.66 0 1 0 C1.05447047 1.41623216 1.09300508 2.83308191 1.125 4.25 C1.14820313 5.03890625 1.17140625 5.8278125 1.1953125 6.640625 C0.9828378 9.20731941 0.28654105 10.7916067 -1 13 C-1.99 12.67 -2.98 12.34 -4 12 C-3.525625 11.505 -3.05125 11.01 -2.5625 10.5 C-0.37832093 7.00531349 -0.34086089 4.09033064 0 0 Z " fill="#0A0A0A" transform="translate(156,24)"/>
<path d="M0 0 C1.98 0 3.96 0 6 0 C5.01 0.495 5.01 0.495 4 1 C4 1.66 4 2.32 4 3 C2.35 3.33 0.7 3.66 -1 4 C-0.67 2.68 -0.34 1.36 0 0 Z " fill="#CEA4A3" transform="translate(126,166)"/>
<path d="M0 0 C0.66 0.33 1.32 0.66 2 1 C1.67 1.66 1.34 2.32 1 3 C1.66 3.33 2.32 3.66 3 4 C2.01 4.99 1.02 5.98 0 7 C-0.66 6.67 -1.32 6.34 -2 6 C-2 4.68 -2 3.36 -2 2 C-1.34 2 -0.68 2 0 2 C0 1.34 0 0.68 0 0 Z " fill="#111111" transform="translate(59,136)"/>
<path d="M0 0 C1.98 0 3.96 0 6 0 C5.34 1.98 4.68 3.96 4 6 C2.68 5.67 1.36 5.34 0 5 C0.99 5 1.98 5 3 5 C3 3.68 3 2.36 3 1 C2.01 0.67 1.02 0.34 0 0 Z " fill="#514380" transform="translate(112,132)"/>
<path d="M0 0 C0.33 0.99 0.66 1.98 1 3 C0 4 0 4 -2.5625 4.0625 C-3.7690625 4.0315625 -3.7690625 4.0315625 -5 4 C-5.33 3.01 -5.66 2.02 -6 1 C-4.7934375 1.0309375 -4.7934375 1.0309375 -3.5625 1.0625 C-1.06645115 1.29633621 -1.06645115 1.29633621 0 0 Z " fill="#112D56" transform="translate(118,128)"/>
<path d="M0 0 C3.82946843 1.45255699 5.12050295 3.42895561 7 7 C4 7 4 7 2.375 5.75 C0.8631638 3.82584484 0.41208721 2.39010582 0 0 Z " fill="#080A09" transform="translate(55,112)"/>
<path d="M0 0 C1.32 0.33 2.64 0.66 4 1 C3.67 2.65 3.34 4.3 3 6 C2.01 6 1.02 6 0 6 C0 4.02 0 2.04 0 0 Z " fill="#1B1E17" transform="translate(90,110)"/>
<path d="M0 0 C0.144375 0.61875 0.28875 1.2375 0.4375 1.875 C0.93152225 4.03258322 0.93152225 4.03258322 2 6 C0.02 6.33 -1.96 6.66 -4 7 C-4.33 6.34 -4.66 5.68 -5 5 C-4.34 5 -3.68 5 -3 5 C-2.67 4.34 -2.34 3.68 -2 3 C-1.34 2.01 -0.68 1.02 0 0 Z " fill="#412625" transform="translate(87,75)"/>
<path d="M0 0 C2.475 0.99 2.475 0.99 5 2 C5 4.31 5 6.62 5 9 C2 5.25 2 5.25 2 3 C1.34 3 0.68 3 0 3 C0 2.01 0 1.02 0 0 Z " fill="#3F1F1F" transform="translate(126,69)"/>
<path d="M0 0 C0.66 0.33 1.32 0.66 2 1 C0.35 2.98 -1.3 4.96 -3 7 C-3.66 6.67 -4.32 6.34 -5 6 C-3.63016497 2.83884224 -3.0109362 2.0072908 0 0 Z " fill="#B88A84" transform="translate(116,12)"/>
<path d="M0 0 C3.63 0 7.26 0 11 0 C10.67 0.66 10.34 1.32 10 2 C8.35 1.67 6.7 1.34 5 1 C5 1.66 5 2.32 5 3 C2.525 2.01 2.525 2.01 0 1 C0 0.67 0 0.34 0 0 Z " fill="#2B2D2C" transform="translate(128,0)"/>
<path d="M0 0 C1.32 0.33 2.64 0.66 4 1 C3.34 1 2.68 1 2 1 C2 1.66 2 2.32 2 3 C3.98 3 5.96 3 8 3 C8 3.33 8 3.66 8 4 C5.69 4.33 3.38 4.66 1 5 C0.67 3.35 0.34 1.7 0 0 Z " fill="#131210" transform="translate(61,153)"/>
<path d="M0 0 C1.32 0 2.64 0 4 0 C4 1.32 4 2.64 4 4 C3.01 4 2.02 4 1 4 C0.67 4.66 0.34 5.32 0 6 C0 4.02 0 2.04 0 0 Z " fill="#4B2D5E" transform="translate(111,133)"/>
<path d="M0 0 C0.66 0.33 1.32 0.66 2 1 C2 1.66 2 2.32 2 3 C4.97 3.495 4.97 3.495 8 4 C8 4.33 8 4.66 8 5 C3.545 5.495 3.545 5.495 -1 6 C-0.67 4.02 -0.34 2.04 0 0 Z " fill="#2D252D" transform="translate(119,128)"/>
<path d="M0 0 C0.93423645 3.01031744 1.04449911 3.86650268 0 7 C-1.32 6.67 -2.64 6.34 -4 6 C-2.25 1.125 -2.25 1.125 0 0 Z " fill="#273321" transform="translate(121,103)"/>
<path d="M0 0 C0.99 0 1.98 0 3 0 C3 1.98 3 3.96 3 6 C2.01 6 1.02 6 0 6 C0 4.02 0 2.04 0 0 Z " fill="#26231E" transform="translate(123,97)"/>
<path d="M0 0 C1.98 0 3.96 0 6 0 C5.67 1.65 5.34 3.3 5 5 C4.01 4.67 3.02 4.34 2 4 C2.33 3.34 2.66 2.68 3 2 C2.01 2 1.02 2 0 2 C0 1.34 0 0.68 0 0 Z " fill="#202029" transform="translate(80,99)"/>
<path d="M0 0 C0.66 0 1.32 0 2 0 C2 0.66 2 1.32 2 2 C2.66 2.33 3.32 2.66 4 3 C3.34 4.32 2.68 5.64 2 7 C1.34 6.67 0.68 6.34 0 6 C0 4.02 0 2.04 0 0 Z " fill="#151819" transform="translate(90,85)"/>
<path d="M0 0 C1.65 0 3.3 0 5 0 C5 1.98 5 3.96 5 6 C3.68 5.67 2.36 5.34 1 5 C0.67 3.35 0.34 1.7 0 0 Z " fill="#1D1D1C" transform="translate(82,81)"/>
<path d="M0 0 C0.66 0 1.32 0 2 0 C1.67 1.32 1.34 2.64 1 4 C0.67 2.68 0.34 1.36 0 0 Z M-1 4 C-0.34 4.33 0.32 4.66 1 5 C1.625 7.0625 1.625 7.0625 2 9 C0.35 8.01 -1.3 7.02 -3 6 C-2.34 5.34 -1.68 4.68 -1 4 Z " fill="#2B2C2A" transform="translate(54,44)"/>
<path d="M0 0 C0.66 0.99 1.32 1.98 2 3 C5.56769552 3.73606499 5.56769552 3.73606499 9 4 C9 4.33 9 4.66 9 5 C5.7 5 2.4 5 -1 5 C-0.67 3.35 -0.34 1.7 0 0 Z " fill="#4E6079" transform="translate(51,220)"/>
<path d="M0 0 C-0.33 1.32 -0.66 2.64 -1 4 C-1.33 3.34 -1.66 2.68 -2 2 C-5.3 2 -8.6 2 -12 2 C-12 1.67 -12 1.34 -12 1 C-10.37512529 0.83211627 -8.75009558 0.66573213 -7.125 0.5 C-6.22007812 0.4071875 -5.31515625 0.314375 -4.3828125 0.21875 C-2 0 -2 0 0 0 Z " fill="#65403F" transform="translate(146,167)"/>
<path d="M0 0 C0.99 0 1.98 0 3 0 C3 1.98 3 3.96 3 6 C2.01 5.67 1.02 5.34 0 5 C0 3.35 0 1.7 0 0 Z " fill="#1E161A" transform="translate(122,134)"/>
<path d="M0 0 C2.1385485 2.1385485 2.42655063 3.13275314 3 6 C2.01 6.495 2.01 6.495 1 7 C1 6.01 1 5.02 1 4 C0.01 4.33 -0.98 4.66 -2 5 C-2 3.68 -2 2.36 -2 1 C-1.34 0.67 -0.68 0.34 0 0 Z " fill="#E5E5E5" transform="translate(170,127)"/>
<path d="M0 0 C2.31 0 4.62 0 7 0 C6.67 1.32 6.34 2.64 6 4 C4.02 3.34 2.04 2.68 0 2 C0 1.34 0 0.68 0 0 Z " fill="#117542" transform="translate(112,115)"/>
<path d="M0 0 C0.66 0 1.32 0 2 0 C2 1.98 2 3.96 2 6 C0.35 6.33 -1.3 6.66 -3 7 C-2.34 6.34 -1.68 5.68 -1 5 C-0.35232207 2.42938689 -0.35232207 2.42938689 0 0 Z " fill="#E9925B" transform="translate(126,85)"/>
<path d="M0 0 C0.99 0.33 1.98 0.66 3 1 C3 2.65 3 4.3 3 6 C1.68 6.33 0.36 6.66 -1 7 C-0.67 4.69 -0.34 2.38 0 0 Z " fill="#292A28" transform="translate(175,49)"/>
<path d="M0 0 C1.98 0 3.96 0 6 0 C6 0.99 6 1.98 6 3 C4.35 3 2.7 3 1 3 C0.67 2.01 0.34 1.02 0 0 Z " fill="#B07D72" transform="translate(98,5)"/>
</svg>
